<svg xmlns="http://www.w3.org/2000/svg" viewBox="0 0 500 500"><g id="freepik--Trees--inject-15"><g id="freepik--Pine--inject-15"><path d="M385.21,242.69c8.22,6.06,45.89,5.22,54.38,0,2.06-14.93-3.5-39.34-5.52-50.25l-5.53,2.3,4.81-6.1-.63-3.22-13.14,6.69L431,176.62c-1.77-8.51-3.68-17-5.63-25l-8.55,7.13,7.4-11.69c-.54-2.13-1.09-4.22-1.63-6.24L415,144.93l6.19-9.08c-1.63-5.81-3.26-11-4.79-15.24a4.24,4.24,0,0,0-8,0c-2.3,6.37-4.78,14.81-7.25,24.32,2.15,5,3.85,8.89,3.85,8.89l-5.45-2.52c-.6,2.41-1.19,4.89-1.78,7.4,2.59,7.92,5.81,17.84,5.81,18.05-.16-.31-4-7.13-7.05-12.61C389.14,197.08,383.23,234,385.21,242.69Z" style="fill:#e0e0e0"></path><path d="M385.21,242.69c8.22,6.06,45.89,5.22,54.38,0,2.06-14.93-3.5-39.34-5.52-50.25l-5.53,2.3,4.81-6.1-.63-3.22-13.14,6.69L431,176.62c-1.77-8.51-3.68-17-5.63-25l-8.55,7.13,7.4-11.69c-.54-2.13-1.09-4.22-1.63-6.24L415,144.93l6.19-9.08c-1.63-5.81-3.26-11-4.79-15.24a4.24,4.24,0,0,0-8,0c-2.3,6.37-4.78,14.81-7.25,24.32,2.15,5,3.85,8.89,3.85,8.89l-5.45-2.52c-.6,2.41-1.19,4.89-1.78,7.4,2.59,7.92,5.81,17.84,5.81,18.05-.16-.31-4-7.13-7.05-12.61C389.14,197.08,383.23,234,385.21,242.69Z" style="opacity:0.05"></path><path d="M410.4,207.7l-11.47-21.6,11.67,14.3,1.8-67,1.4,40.78,8.17-11.8-7.92,19.16,1.42,41.3L431,208.48l-15.36,20.36,1.3,71.58c0,2.41-8.16,2.41-8.16,0l1.58-92.73Z" style="fill:#f0f0f0"></path></g><g id="freepik--pine--inject-15"><path d="M424.44,267.55c9.92,7.32,55.35,6.31,65.58,0,.9-4,.44-12.77-1-24.37l-12.2,6.56,11-15.45c-1.61-11.23-3.85-24.2-6.48-37.49l-7.55,4.2,6.45-9.68q-.76-3.73-1.56-7.47l-8.6,4.22,7.39-9.88c-2.2-10-4.53-19.88-6.88-28.91l-6.85,2s2.58-3.87,5.3-7.88c-2.41-8.89-4.81-16.79-7.07-23a5.1,5.1,0,0,0-9.6,0c-3,8.41-6.34,19.84-9.59,32.65l6.08,10.2L441.87,157c-1.47,5.92-2.92,12.09-4.3,18.34l9.74,17.41-11.73-8.2c-1.95,9.19-3.75,18.41-5.34,27.24l9.52,9.46-10.56-3.39c-.2,1.07-.37,2.13-.55,3.18l9.75,13.14-10.9-6C424.57,247,423.19,262,424.44,267.55Z" style="fill:#e0e0e0"></path><path d="M454.83,225.36,441,199.31l14.07,17.25,2.17-80.8,1.69,49.17,9.85-14.23-9.54,23.11,1.71,49.8,18.77-17.3-18.52,24.55,1.57,72c0,2.9-9.84,2.9-9.84,0l1.91-97.52Z" style="fill:#f0f0f0"></path></g><g id="freepik--pine--inject-15"><path d="M273,190.25c9.77,6,53.07,7,62.51,0a32.87,32.87,0,0,0,.39-7.88l-10.09,4.5,9.38-14.4c-.59-6-1.53-13-2.72-20.62L322.63,157l8.62-12.5c-.2-1.21-.42-2.44-.64-3.68L314.69,150l13.88-20.52c-2.14-11.32-4.61-23.09-7.21-34.29l-9.23,6.94,7.36-14.87c-.35-1.43-.7-2.83-1-4.23l-9.11,7.24,7-15.51c-2.54-9.65-5.1-18.22-7.49-24.84a4.87,4.87,0,0,0-9.16,0c-2.3,6.35-4.74,14.49-7.2,23.66l2.75,16.69-5.26-7c-2.3,9.32-4.59,19.32-6.68,29.36l6.89,21.54-8.88-11.77c-2,10.13-3.81,20.1-5.22,29.18l4,9.77-5-3c-.35,2.41-.67,4.75-.94,7l8.7,14.49-9.48-7.67C272.44,180.69,272.25,187.1,273,190.25Z" style="fill:#e0e0e0"></path><path d="M273,190.25c9.77,6,53.07,7,62.51,0a32.87,32.87,0,0,0,.39-7.88l-10.09,4.5,9.38-14.4c-.59-6-1.53-13-2.72-20.62L322.63,157l8.62-12.5c-.2-1.21-.42-2.44-.64-3.68L314.69,150l13.88-20.52c-2.14-11.32-4.61-23.09-7.21-34.29l-9.23,6.94,7.36-14.87c-.35-1.43-.7-2.83-1-4.23l-9.11,7.24,7-15.51c-2.54-9.65-5.1-18.22-7.49-24.84a4.87,4.87,0,0,0-9.16,0c-2.3,6.35-4.74,14.49-7.2,23.66l2.75,16.69-5.26-7c-2.3,9.32-4.59,19.32-6.68,29.36l6.89,21.54-8.88-11.77c-2,10.13-3.81,20.1-5.22,29.18l4,9.77-5-3c-.35,2.41-.67,4.75-.94,7l8.7,14.49-9.48-7.67C272.44,180.69,272.25,187.1,273,190.25Z" style="fill:#e0e0e0"></path><path d="M306.53,150l13.18-24.82L306.3,141.65l-2.06-77-1.61,46.87-9.39-13.56,9.1,22-1.64,47.47-17.89-16.49,17.66,23.4L299,237.52c0,2.77,9.38,2.77,9.38,0L306.53,150Z" style="fill:#f0f0f0"></path></g></g><g id="freepik--Floor--inject-15"><g id="freepik--floor--inject-15"><g id="freepik--Frame--inject-15"><path d="M257.15,197.85,10,340.55,242.9,475l247.16-142.7Z" style="fill:#BA68C8"></path><path d="M257.15,197.85,10,340.55,242.9,475l247.16-142.7Z" style="fill:#fff;opacity:0.55"></path><polygon points="490.06 332.32 490.06 344.21 242.85 486.93 242.9 475.02 490.06 332.32" style="fill:#BA68C8"></polygon><polygon points="490.06 332.32 490.06 344.21 242.85 486.93 242.9 475.02 490.06 332.32" style="fill:#fff;opacity:0.7000000000000001"></polygon><polygon points="242.85 486.93 242.9 475.02 9.98 340.55 9.98 352.45 242.85 486.93" style="fill:#BA68C8"></polygon><polygon points="242.85 486.93 242.9 475.02 9.98 340.55 9.98 352.45 242.85 486.93" style="fill:#fff;opacity:0.35000000000000003"></polygon></g></g><g id="freepik--Flowers--inject-15"><path d="M199.55,344.49s-.78-2.2-2.61-2c0,0-1.51.15-1.7,2.62a4.8,4.8,0,0,0-4.05,1.63,2.69,2.69,0,0,0,2.72,2.36s-1.08,1.42.25,3.74c0,0,3.94.21,4.21-2.28,0,0,.87,1.92,4.41,1a3.51,3.51,0,0,0-1.1-4s2.47-.76,2.36-2.72C204,344.82,201.59,342.47,199.55,344.49Z" style="fill:#fafafa"></path><path d="M197.47,345.45a2.56,2.56,0,0,0-2.22,2.38s.37,1.31,2.67.89,2.29-1.84,2.29-1.84A2.29,2.29,0,0,0,197.47,345.45Z" style="fill:#f0997a"></path><path d="M217.77,329.75s-.82-1.66-2.16-1.85a3.71,3.71,0,0,0-1.34,2.39,3.38,3.38,0,0,0-2.94.72,3.12,3.12,0,0,0,1.87,2.16,4.18,4.18,0,0,0,.1,3.07s2.59.19,3.5-2c0,0,1,1.44,3.6.94a2.71,2.71,0,0,0-1-3.15,2.85,2.85,0,0,0,1.44-2.51A4.08,4.08,0,0,0,217.77,329.75Z" style="fill:#fafafa"></path><path d="M216.3,330.73a1.9,1.9,0,0,0-1.84,1.56s.16,1,1.89.89,1.84-1.16,1.84-1.16A1.7,1.7,0,0,0,216.3,330.73Z" style="fill:#f0997a"></path><path d="M181.61,330.42s-.51-1.49-1.49-1-.63,1.44.21,1.65c0,0-1.82.6-1.31,1.57s2.08,0,2.42-.55c0,0,.34,1.49,1.61,1s0-1.81,0-1.81,1.95-.76.89-1.65S181.61,330.42,181.61,330.42Z" style="fill:#fafafa"></path><path d="M238.4,337.79s.15-1.56-1-1.5-1.17,1-.49,1.59c0,0-1.9-.21-1.84.89s1.91.82,2.43.49c0,0-.31,1.5,1.07,1.54s.74-1.65.74-1.65,2.09.12,1.5-1.13S238.4,337.79,238.4,337.79Z" style="fill:#fafafa"></path><path d="M172.55,352.49s1.73-1.17,2.08-.19-1.11,1.3-1.11,1.3,1.08,1,.25,1.43-1.62-.8-1.62-.8-.77,1.27-1.44.48.5-1.64.5-1.64-1.23-.59-.83-1.37S172.2,351.51,172.55,352.49Z" style="fill:#fafafa"></path></g><g id="freepik--flowers--inject-15"><path d="M257.29,422s.16-2.19,1.88-2.43c0,0,1.41-.23,2.2,2a4.51,4.51,0,0,1,4.07.47,2.54,2.54,0,0,1-1.88,2.82s1.33,1,.71,3.45c0,0-3.53,1.18-4.39-1,0,0-.32,2-3.77,2a3.29,3.29,0,0,1,0-3.92s-2.43-.08-2.82-1.89C253.29,423.42,254.94,420.68,257.29,422Z" style="fill:#fafafa"></path><path d="M259.41,422.36A2.41,2.41,0,0,1,262,424s0,1.28-2.21,1.46-2.53-1.1-2.53-1.1A2.15,2.15,0,0,1,259.41,422.36Z" style="fill:#f0997a"></path><path d="M245.84,399.27s.78-1.57,2-1.75a3.49,3.49,0,0,1,1.26,2.25,3.19,3.19,0,0,1,2.77.68,2.94,2.94,0,0,1-1.76,2,3.92,3.92,0,0,1-.09,2.89,3.41,3.41,0,0,1-3.3-1.85s-.9,1.35-3.39.88a2.55,2.55,0,0,1,.9-3,2.67,2.67,0,0,1-1.35-2.36A3.8,3.8,0,0,1,245.84,399.27Z" style="fill:#fafafa"></path><path d="M247.23,400.19a1.77,1.77,0,0,1,1.73,1.47s-.14.94-1.77.83-1.74-1.09-1.74-1.09A1.6,1.6,0,0,1,247.23,400.19Z" style="fill:#f0997a"></path><path d="M267,405.84s.48-1.4,1.4-.92.6,1.36-.2,1.56c0,0,1.72.56,1.24,1.47s-2,0-2.28-.51c0,0-.32,1.4-1.51.9s0-1.71,0-1.71-1.84-.71-.84-1.55S267,405.84,267,405.84Z" style="fill:#fafafa"></path><path d="M170,403.54s-.14-1.46.89-1.41,1.1,1,.46,1.5c0,0,1.79-.2,1.74.83s-1.8.77-2.29.47c0,0,.29,1.41-1,1.45s-.7-1.55-.7-1.55-2,.11-1.4-1.07S170,403.54,170,403.54Z" style="fill:#fafafa"></path><path d="M287.39,417.17s1.19-1.56.29-1.94-1.28,1-1.28,1-.91-1.07-1.33-.31.66,1.57.66,1.57-1.23.66-.52,1.33,1.56-.38,1.56-.38.49,1.18,1.24.85S288.29,417.55,287.39,417.17Z" style="fill:#fafafa"></path><path d="M275.77,269.93s.16-2.19,1.88-2.43c0,0,1.41-.23,2.2,2a4.51,4.51,0,0,1,4.07.47,2.52,2.52,0,0,1-1.88,2.82s1.34,1,.71,3.45c0,0-3.53,1.18-4.39-1,0,0-.32,2-3.77,2a3.3,3.3,0,0,1,0-3.92s-2.43-.07-2.82-1.88C271.77,271.34,273.42,268.6,275.77,269.93Z" style="fill:#fafafa"></path><path d="M277.89,270.28a2.41,2.41,0,0,1,2.61,1.61s0,1.28-2.2,1.47-2.53-1.1-2.53-1.1A2.15,2.15,0,0,1,277.89,270.28Z" style="fill:#f0997a"></path><path d="M264.33,247.18s.77-1.56,2-1.74a3.49,3.49,0,0,1,1.26,2.25,3.19,3.19,0,0,1,2.77.68,2.94,2.94,0,0,1-1.76,2,3.92,3.92,0,0,1-.09,2.89,3.43,3.43,0,0,1-3.3-1.85s-.9,1.35-3.39.88a2.55,2.55,0,0,1,.91-3A2.67,2.67,0,0,1,261.4,247,3.85,3.85,0,0,1,264.33,247.18Z" style="fill:#fafafa"></path><path d="M265.71,248.1a1.78,1.78,0,0,1,1.73,1.48s-.14.94-1.77.83-1.73-1.09-1.73-1.09A1.6,1.6,0,0,1,265.71,248.1Z" style="fill:#f0997a"></path><path d="M285.45,253.76s.48-1.4,1.39-.92.6,1.36-.2,1.56c0,0,1.72.56,1.24,1.47s-1.95,0-2.27-.52c0,0-.32,1.41-1.52.91s0-1.71,0-1.71-1.83-.71-.84-1.55S285.45,253.76,285.45,253.76Z" style="fill:#fafafa"></path><path d="M305.87,265.09s1.19-1.56.29-1.94-1.28,1-1.28,1-.9-1.07-1.33-.31.66,1.57.66,1.57-1.23.66-.52,1.32,1.57-.37,1.57-.37.48,1.18,1.24.85S306.77,265.47,305.87,265.09Z" style="fill:#fafafa"></path></g></g><g id="freepik--Clouds--inject-15"><path id="freepik--Cloud--inject-15" d="M125.36,72.69a10.88,10.88,0,0,0-3.64-.67c-1.18-.1-1.56-.33-1.78-.59a8.7,8.7,0,0,0-10.44-3.08,6.67,6.67,0,0,0-7.88-4.45c.13-3.67-4.55-7.62-8.77-8.51-4-.86-7.55-.5-9.86,2.15-2.46-4.81-12.13-6.17-17.36-3.62-3,1.46-5.56,3-6.81,5.73a11.44,11.44,0,0,0-1.13,5.48c-2-1.8-6.13-2.29-8.85-1.23-2.93,1.13-3.16,3.34-3.3,5.6a10.25,10.25,0,0,0-5.35-.1c-1.85.55-2.91,2-2.66,3.17-1.46-.08-5,1.1-4.55,2.65.45,1.73,4.43,1.56,5.92,1.5a26.68,26.68,0,0,0,4.16-.65,6.35,6.35,0,0,0,2.17.41c2.53,0,3.61-1.1,4-2C50.48,77,54.89,79,58,79.82c5.86,1.5,14.15.59,17.76-3.79a6.62,6.62,0,0,0,1.75,2.12,10.12,10.12,0,0,0,5.42,2.2c2.41.23,8.87.53,10.69-3.29,1.29,2.54,7,3.7,11.42,3.08a17.79,17.79,0,0,0,4.89-1.48A29.2,29.2,0,0,0,112.75,77a2.35,2.35,0,0,1,2.4-.16c3,.9,6.49,1.27,9.55,0C127.14,75.77,127.65,73.73,125.36,72.69Z" style="fill:#f0f0f0"></path><path id="freepik--cloud--inject-15" d="M181.4,44.3a8,8,0,0,0-2.68-.5c-.87-.07-1.15-.24-1.31-.43a6.42,6.42,0,0,0-7.7-2.27,4.91,4.91,0,0,0-5.8-3.28c.1-2.7-3.35-5.61-6.46-6.27s-5.56-.37-7.26,1.59c-1.82-3.55-8.94-4.55-12.8-2.67-2.21,1.08-4.09,2.19-5,4.22a8.41,8.41,0,0,0-.84,4,7.07,7.07,0,0,0-6.51-.91c-2.17.84-2.33,2.47-2.44,4.13a7.6,7.6,0,0,0-3.93-.08c-1.37.41-2.15,1.48-2,2.34-1.07-.06-3.64.81-3.35,1.95s3.27,1.15,4.36,1.11a20.7,20.7,0,0,0,3.07-.48,4.5,4.5,0,0,0,1.59.3c1.87,0,2.66-.81,3-1.51.92,1.92,4.16,3.39,6.45,4,4.32,1.11,10.43.43,13.09-2.79a4.77,4.77,0,0,0,1.29,1.56,7.43,7.43,0,0,0,4,1.62c1.78.17,6.54.4,7.88-2.42.95,1.87,5.19,2.72,8.41,2.27A13.26,13.26,0,0,0,170,48.7a21.83,21.83,0,0,0,2.07-1.25,1.75,1.75,0,0,1,1.77-.12,10.56,10.56,0,0,0,7,0C182.72,46.57,183.09,45.06,181.4,44.3Z" style="fill:#f5f5f5"></path></g><g id="freepik--Line--inject-15"><path id="freepik--Lines--inject-15" d="M153.66,296.86a1.55,1.55,0,0,0-2.18.14c-2.27,2.61-4.73,5.06-7,7.32a1.53,1.53,0,0,0,0,2.17,1.57,1.57,0,0,0,1.11.47,1.55,1.55,0,0,0,1.07-.44c2.36-2.3,4.87-4.8,7.21-7.49A1.54,1.54,0,0,0,153.66,296.86Zm11.53,78.8a70.11,70.11,0,0,1-9.81-2.19,1.55,1.55,0,0,0-1.92,1,1.54,1.54,0,0,0,1,1.92,72,72,0,0,0,10.24,2.29l.23,0a1.54,1.54,0,0,0,.23-3.07Zm25.16,0a87.85,87.85,0,0,1-10.06.86,1.54,1.54,0,0,0,0,3.08h0a91.7,91.7,0,0,0,10.41-.89,1.54,1.54,0,1,0-.44-3.05Zm-48.59-8.42a44.71,44.71,0,0,1-7.76-6.17,1.54,1.54,0,1,0-2.18,2.17,47.35,47.35,0,0,0,8.29,6.6,1.54,1.54,0,1,0,1.65-2.6Zm-6-52.05a1.54,1.54,0,0,0-2.17.15,59.74,59.74,0,0,0-6.28,8.46,1.54,1.54,0,1,0,2.64,1.59,56.91,56.91,0,0,1,6-8A1.54,1.54,0,0,0,135.71,315.24Zm22.45-53.67a1.54,1.54,0,0,0,2.46-1.85,22.15,22.15,0,0,0-3.82-3.93l-2.89,1.66A19.61,19.61,0,0,1,158.16,261.57Zm-33,79.65c0-.65,0-1.32.08-2a1.54,1.54,0,1,0-3.07-.23c-.06.74-.09,1.49-.09,2.22a28.55,28.55,0,0,0,1.3,8.5,1.55,1.55,0,0,0,1.47,1.08,1.53,1.53,0,0,0,1.47-2A25.35,25.35,0,0,1,125.12,341.22Zm35.31-54.64a1.66,1.66,0,0,0,.58.11,1.55,1.55,0,0,0,1.43-1,33.7,33.7,0,0,0,2.48-10.44,1.54,1.54,0,1,0-3.08-.2,30,30,0,0,1-2.26,9.48A1.55,1.55,0,0,0,160.43,286.58Zm54,81.69c-3.16,1.4-6.33,2.68-9.43,3.81a1.54,1.54,0,0,0,.52,3,1.42,1.42,0,0,0,.53-.1c3.16-1.15,6.4-2.46,9.63-3.89a1.54,1.54,0,0,0-1.25-2.81Zm138-64.89a57.3,57.3,0,0,0-10.54-.48,1.55,1.55,0,0,0-1.47,1.61A1.53,1.53,0,0,0,342,306a54.68,54.68,0,0,1,10,.45h.22a1.54,1.54,0,0,0,.21-3.06Zm15.13,4.8a1.54,1.54,0,1,0-1.44,2.72,38.89,38.89,0,0,1,8.06,5.68,1.55,1.55,0,0,0,1.05.4,1.5,1.5,0,0,0,1.13-.5,1.53,1.53,0,0,0-.09-2.17A42.43,42.43,0,0,0,367.5,308.18Zm-41.19-2.79c-1.07.29-2.17.61-3.27,1-2.16.68-4.39,1.48-6.64,2.37a1.54,1.54,0,0,0,.57,3,1.44,1.44,0,0,0,.57-.11c2.17-.86,4.34-1.63,6.43-2.29,1-.34,2.11-.65,3.14-.93a1.54,1.54,0,1,0-.8-3Zm60.78,27.18a31.91,31.91,0,0,0-1.6-5.15,1.54,1.54,0,1,0-2.85,1.16,28.7,28.7,0,0,1,1.44,4.65,1.53,1.53,0,0,0,1.5,1.21,1.24,1.24,0,0,0,.33,0A1.54,1.54,0,0,0,387.09,332.57ZM280,328.35c-2.63,1.65-5.46,3.48-8.67,5.59a1.54,1.54,0,0,0,1.7,2.58c3.19-2.1,6-3.92,8.61-5.56a1.55,1.55,0,0,0,.48-2.13A1.53,1.53,0,0,0,280,328.35Zm22.28-13c-2.69,1.43-5.56,3-9,5a1.54,1.54,0,1,0,1.54,2.67c3.43-2,6.27-3.57,8.93-5a1.54,1.54,0,1,0-1.45-2.72ZM258.5,342.5c-2.84,1.9-5.69,3.8-8.55,5.67a1.54,1.54,0,0,0,.84,2.83,1.52,1.52,0,0,0,.84-.25q4.31-2.82,8.58-5.69a1.54,1.54,0,1,0-1.71-2.56ZM237,356.36c-3.1,1.87-6,3.53-8.86,5.1a1.54,1.54,0,0,0,.74,2.89,1.51,1.51,0,0,0,.74-.19c2.9-1.59,5.83-3.27,9-5.16a1.54,1.54,0,1,0-1.58-2.64Z" style="fill:#BA68C8"></path><path id="freepik--lines--inject-15" d="M153.66,296.86a1.55,1.55,0,0,0-2.18.14c-2.27,2.61-4.73,5.06-7,7.32a1.53,1.53,0,0,0,0,2.17,1.57,1.57,0,0,0,1.11.47,1.55,1.55,0,0,0,1.07-.44c2.36-2.3,4.87-4.8,7.21-7.49A1.54,1.54,0,0,0,153.66,296.86Zm11.53,78.8a70.11,70.11,0,0,1-9.81-2.19,1.55,1.55,0,0,0-1.92,1,1.54,1.54,0,0,0,1,1.92,72,72,0,0,0,10.24,2.29l.23,0a1.54,1.54,0,0,0,.23-3.07Zm25.16,0a87.85,87.85,0,0,1-10.06.86,1.54,1.54,0,0,0,0,3.08h0a91.7,91.7,0,0,0,10.41-.89,1.54,1.54,0,1,0-.44-3.05Zm-48.59-8.42a44.71,44.71,0,0,1-7.76-6.17,1.54,1.54,0,1,0-2.18,2.17,47.35,47.35,0,0,0,8.29,6.6,1.54,1.54,0,1,0,1.65-2.6Zm-6-52.05a1.54,1.54,0,0,0-2.17.15,59.74,59.74,0,0,0-6.28,8.46,1.54,1.54,0,1,0,2.64,1.59,56.91,56.91,0,0,1,6-8A1.54,1.54,0,0,0,135.71,315.24Zm22.45-53.67a1.54,1.54,0,0,0,2.46-1.85,22.15,22.15,0,0,0-3.82-3.93l-2.89,1.66A19.61,19.61,0,0,1,158.16,261.57Zm-33,79.65c0-.65,0-1.32.08-2a1.54,1.54,0,1,0-3.07-.23c-.06.74-.09,1.49-.09,2.22a28.55,28.55,0,0,0,1.3,8.5,1.55,1.55,0,0,0,1.47,1.08,1.53,1.53,0,0,0,1.47-2A25.35,25.35,0,0,1,125.12,341.22Zm35.31-54.64a1.66,1.66,0,0,0,.58.11,1.55,1.55,0,0,0,1.43-1,33.7,33.7,0,0,0,2.48-10.44,1.54,1.54,0,1,0-3.08-.2,30,30,0,0,1-2.26,9.48A1.55,1.55,0,0,0,160.43,286.58Zm54,81.69c-3.16,1.4-6.33,2.68-9.43,3.81a1.54,1.54,0,0,0,.52,3,1.42,1.42,0,0,0,.53-.1c3.16-1.15,6.4-2.46,9.63-3.89a1.54,1.54,0,0,0-1.25-2.81Zm138-64.89a57.3,57.3,0,0,0-10.54-.48,1.55,1.55,0,0,0-1.47,1.61A1.53,1.53,0,0,0,342,306a54.68,54.68,0,0,1,10,.45h.22a1.54,1.54,0,0,0,.21-3.06Zm15.13,4.8a1.54,1.54,0,1,0-1.44,2.72,38.89,38.89,0,0,1,8.06,5.68,1.55,1.55,0,0,0,1.05.4,1.5,1.5,0,0,0,1.13-.5,1.53,1.53,0,0,0-.09-2.17A42.43,42.43,0,0,0,367.5,308.18Zm-41.19-2.79c-1.07.29-2.17.61-3.27,1-2.16.68-4.39,1.48-6.64,2.37a1.54,1.54,0,0,0,.57,3,1.44,1.44,0,0,0,.57-.11c2.17-.86,4.34-1.63,6.43-2.29,1-.34,2.11-.65,3.14-.93a1.54,1.54,0,1,0-.8-3Zm60.78,27.18a31.91,31.91,0,0,0-1.6-5.15,1.54,1.54,0,1,0-2.85,1.16,28.7,28.7,0,0,1,1.44,4.65,1.53,1.53,0,0,0,1.5,1.21,1.24,1.24,0,0,0,.33,0A1.54,1.54,0,0,0,387.09,332.57ZM280,328.35c-2.63,1.65-5.46,3.48-8.67,5.59a1.54,1.54,0,0,0,1.7,2.58c3.19-2.1,6-3.92,8.61-5.56a1.55,1.55,0,0,0,.48-2.13A1.53,1.53,0,0,0,280,328.35Zm22.28-13c-2.69,1.43-5.56,3-9,5a1.54,1.54,0,1,0,1.54,2.67c3.43-2,6.27-3.57,8.93-5a1.54,1.54,0,1,0-1.45-2.72ZM258.5,342.5c-2.84,1.9-5.69,3.8-8.55,5.67a1.54,1.54,0,0,0,.84,2.83,1.52,1.52,0,0,0,.84-.25q4.31-2.82,8.58-5.69a1.54,1.54,0,1,0-1.71-2.56ZM237,356.36c-3.1,1.87-6,3.53-8.86,5.1a1.54,1.54,0,0,0,.74,2.89,1.51,1.51,0,0,0,.74-.19c2.9-1.59,5.83-3.27,9-5.16a1.54,1.54,0,1,0-1.58-2.64Z" style="fill:#fff;opacity:0.8"></path></g><g id="freepik--Cross--inject-15"><g id="freepik--cross--inject-15"><path d="M385.29,346.15h0a43.8,43.8,0,0,1-4.77-4.21l-6.09-6.27-19.08,11,10.85,3.51q3.81,1.24,7.29,2.76h0a59.85,59.85,0,0,1,12.41,7.17h0a43.93,43.93,0,0,1,4.78,4.21l6.07,6.26,19.08-11L405,356.08c-2.54-.83-5-1.75-7.3-2.76h0A60.2,60.2,0,0,1,385.29,346.15Z" style="fill:#BA68C8"></path><path d="M373.5,353.3h0q-3.48,1.51-7.29,2.75l-10.85,3.52,19.08,11,6.09-6.27a43.8,43.8,0,0,1,4.77-4.21h0a60.2,60.2,0,0,1,12.42-7.17h0a76.69,76.69,0,0,1,7.3-2.76l10.83-3.5-19.08-11-6.07,6.26a43.93,43.93,0,0,1-4.78,4.21h0A59.85,59.85,0,0,1,373.5,353.3Z" style="fill:#BA68C8"></path></g></g><g id="freepik--Rocks--inject-15"><polygon id="freepik--Shadow--inject-15" points="210.85 415.77 216.6 417.41 221.52 420.28 217.11 424.41 203.07 427.57 198.77 426.31 193.14 425.82 188.51 421.77 198.21 418.88 210.85 415.77" style="opacity:0.2"></polygon><polygon id="freepik--shadow--inject-15" points="287.48 371.21 289.16 374.37 305.34 379.11 320.98 374.06 318.59 369.29 306.67 367.33 287.48 371.21" style="opacity:0.2"></polygon><g id="freepik--Rock--inject-15"><polygon points="216.11 419.61 203.07 425.82 203.07 415.31 211.66 410.22 216.11 419.61" style="fill:#263238"></polygon><polygon points="197.34 411.97 203.07 415.31 203.07 425.82 194.47 421.68 197.34 411.97" style="fill:#37474f"></polygon><path d="M197.64,412.73l4.93,2.87V425l-7.5-3.61,2.57-8.68m-.3-.76-2.87,9.71,8.6,4.14v-10.5L197.34,412Z" style="fill:#263238"></path><polygon points="211.66 410.22 203.86 409.43 197.34 411.97 203.07 415.31 211.66 410.22" style="fill:#455a64"></polygon><polygon points="197.82 418.32 195.37 419.91 191.32 419.12 194.04 417.86 195.9 417.86 197.82 418.32" style="fill:#455a64"></polygon><polygon points="196.03 425.22 195.37 419.91 191.32 419.12 190.26 421.77 196.03 425.22" style="fill:#37474f"></polygon><path d="M191.63,419.69l3.28.64.5,3.94-4.53-2.71.75-1.87m-.31-.57-1.06,2.65,5.77,3.45-.67-5.31-4-.79Z" style="fill:#263238"></path><polygon points="197.82 418.32 199.88 424.29 196.03 425.22 195.37 419.91 197.82 418.32" style="fill:#263238"></polygon></g><g id="freepik--rock--inject-15"><polygon points="315.07 371.12 305.34 376.26 289.59 372.18 291.81 366.17 297.39 362.23 301.23 361.16 305.34 356.43 309.44 356.85 315.07 371.12" style="fill:#37474f"></polygon><polygon points="297.39 362.23 299.4 367.06 305.88 368.02 313.11 366.13 304.26 370.68 294.02 368.96 291.81 366.17 297.39 362.23" style="fill:#455a64"></polygon><polygon points="305.34 376.26 304.26 370.68 294.02 368.96 291.81 366.17 289.59 372.18 305.34 376.26" style="fill:#263238"></polygon><polygon points="305.34 356.43 309.44 356.85 305.71 359.7 301.23 361.16 305.34 356.43" style="fill:#455a64"></polygon></g></g><g id="freepik--Trunk--inject-15"><path id="freepik--shadow--inject-15" d="M95.31,362.68c1.21.26,1.09.8,2.33.84a11.73,11.73,0,0,0,5.91-1.36c4.83-2.68,7.16-6.23,9.86-11.05a25.44,25.44,0,0,1,2-3.45c1-.63,2.94.69,4,1.47s2.23,1.71,3.47,1.69a7,7,0,0,0,2.24-.53,8,8,0,0,0,2.3-1.16,1.61,1.61,0,0,0,.51-.62,1.82,1.82,0,0,0,.06-1c-.35-2.39-1.82-4.26-2.34-6.61a13.2,13.2,0,0,1,6.3.5,13,13,0,0,1,4.91,3.52,2.4,2.4,0,0,0,2.07.95c4.39.27,8.45.38,12.59-1.27a12.17,12.17,0,0,0,4.17-2.39,4.25,4.25,0,0,0,1.21-4.4,5.69,5.69,0,0,0-2.45-2.48,42.24,42.24,0,0,0-15.14-5.43,125.8,125.8,0,0,0-17.76-1.62,443.43,443.43,0,0,0-48.09.82c-7.53.54-15.12,1.34-22.4,3.44-2.8.81-19.94,6.79-17.28,11.25a3.74,3.74,0,0,0,3.36,1.47c-.39,2.06,1.42,3.92,3.35,4.76a10.36,10.36,0,0,0,4.22.87c4.91,0,9.19-3.51,14.06-4.21a15.41,15.41,0,0,1,6.54.55,14.09,14.09,0,0,1,3.07,1.3c1.2.7,1.58,1.2.78,2.52a44.43,44.43,0,0,0-3.05,6.19c1.39,1.87,4.46,2.68,6.59,2.86,1.13.1,3.38.06,4.3-.62,2.48-1.83,1.6-2.39,4.49-4.87a32.58,32.58,0,0,1,3.68-2.25A32.93,32.93,0,0,0,91,347.78a11.34,11.34,0,0,1,.42,3.12,43.9,43.9,0,0,1-.43,7.51c-.1.69-.22,1.37-.29,2.06a.86.86,0,0,0,0,.48.89.89,0,0,0,.31.3,13.53,13.53,0,0,0,3.68,1.29Z" style="opacity:0.2"></path><g id="freepik--trunk--inject-15"><g id="freepik--Grass--inject-15"><path d="M150.84,312.36c-1.12,10.55,2.72,23.5,2.72,23.5l-2.35-1.09C148.36,320.36,150.84,312.36,150.84,312.36Z" style="fill:#455a64"></path><path d="M153.56,335.86a66.83,66.83,0,0,1,2.91-17.9c2.83-8.41,7-12.42,7-12.42s-5.24,3-8.94,12.06a56.3,56.3,0,0,0-4,16.83Z" style="fill:#455a64"></path><path d="M153.56,335.86s.87-7.87,9.9-15.15a26.9,26.9,0,0,0-12.25,14.06Z" style="fill:#455a64"></path></g><g id="freepik--grass--inject-15"><path d="M38,318.32c1.11,10.55-2.72,23.5-2.72,23.5l2.34-1.09C40.52,326.32,38,318.32,38,318.32Z" style="fill:#455a64"></path><path d="M35.32,341.82a66.61,66.61,0,0,0-2.92-17.9c-2.83-8.41-7-12.42-7-12.42s5.24,3,8.93,12.06a55.93,55.93,0,0,1,4,16.83Z" style="fill:#455a64"></path><path d="M35.32,341.82s-.88-7.87-9.91-15.15a26.9,26.9,0,0,1,12.25,14.06Z" style="fill:#455a64"></path></g><g id="freepik--Bush--inject-15"><path d="M57,322.49a5.72,5.72,0,0,0-2.26,1.39,5,5,0,0,0-1.39,3.55,2.85,2.85,0,0,0-2.66-1.16,4.48,4.48,0,0,0-3,1.34,3.8,3.8,0,0,0-1,3.08,4.06,4.06,0,0,0-4.82.26,5,5,0,0,0-1.61,4.7,2.82,2.82,0,0,0-3.45.14,2.41,2.41,0,0,0-.13,3.35,2,2,0,0,0-1,3.78,4,4,0,0,0,2.16.22,2.28,2.28,0,0,0,2,2.09A3.09,3.09,0,0,0,42.55,344c-.29.38,1.77.37,2,.3a4.12,4.12,0,0,0,2-1.49,4.1,4.1,0,0,0,6.27-2.52,5.18,5.18,0,0,0,7.28-2.88,10,10,0,0,0,4.42.86,4.62,4.62,0,0,0,3.08-1.09,2.26,2.26,0,0,0,.32-3,10.82,10.82,0,0,0,2.94.47,2.29,2.29,0,0,0,1.32-.27,2.17,2.17,0,0,0,.81-1.53,5.07,5.07,0,0,0-.43-3.39,3.13,3.13,0,0,0-2.85-1.67c2.18-.18.87-3.52-.43-4.09a5.74,5.74,0,0,0-5.51.83A12.13,12.13,0,0,0,61.86,323a6.36,6.36,0,0,0-2.51-.79A5.77,5.77,0,0,0,57,322.49Z" style="fill:#BA68C8"></path><path d="M69.68,327.76c2.18-.18.87-3.52-.43-4.09a5.74,5.74,0,0,0-5.51.83A12.13,12.13,0,0,0,61.86,323a6.64,6.64,0,0,0-1.49-.6c-.44.86-.74,1.78-1.25,2.6a1,1,0,0,1-.35.4,1.24,1.24,0,0,1-.42.11,4.12,4.12,0,0,0-1.92.63,1.68,1.68,0,0,0-.73,1.77,1.5,1.5,0,0,0-1,.71c-.14.23-.21.5-.33.75a4.6,4.6,0,0,1-1.17,1.36L52,331.8c-1.27,1.13-2.9,1.77-4.2,2.88-.94.81-1.71,1.81-2.65,2.64a4.87,4.87,0,0,1-3.35,1.44A1.8,1.8,0,0,1,39,339.9a2.18,2.18,0,0,1-2.8,1.51A2.14,2.14,0,0,1,35,340a1.83,1.83,0,0,0-.33.67,2.06,2.06,0,0,0,1,2.28,4,4,0,0,0,2.16.22,2.28,2.28,0,0,0,2,2.09A3.09,3.09,0,0,0,42.55,344c-.29.38,1.77.37,2,.3a4.12,4.12,0,0,0,2-1.49,4.1,4.1,0,0,0,6.27-2.52,5.18,5.18,0,0,0,7.28-2.88,10,10,0,0,0,4.42.86,4.62,4.62,0,0,0,3.08-1.09,2.26,2.26,0,0,0,.32-3,10.82,10.82,0,0,0,2.94.47,2.29,2.29,0,0,0,1.32-.27,2.17,2.17,0,0,0,.81-1.53,5.07,5.07,0,0,0-.43-3.39A3.13,3.13,0,0,0,69.68,327.76Z" style="opacity:0.2"></path></g><g id="freepik--bush--inject-15"><path d="M143.9,341.2a1.72,1.72,0,0,0,.42.23c1,.38,1.82-.18,2.73,0a10.34,10.34,0,0,0,3,.62,6.11,6.11,0,0,0,4.43-2.47,3.17,3.17,0,0,0,.1-3.83,5,5,0,0,0,1-5.49c-1.33-3-5.93-4.82-8.69-2.64a5.64,5.64,0,0,0-1.57-4.59,3.39,3.39,0,0,0-4.54-.08,2.72,2.72,0,0,0-3.19-2.82,6.26,6.26,0,0,0-.18-6.2,5.64,5.64,0,0,0-5.59-2.5,5.12,5.12,0,0,0-4.1,4.43,6.44,6.44,0,0,0-1.23-2.45,2.23,2.23,0,0,0-2.5-.64,6.6,6.6,0,0,0-.91-5.9,4.77,4.77,0,0,0-5.53-1.55c-2.93,1.34-2.74,5.85-.71,7.85a3.49,3.49,0,0,0-3.45,3,4.71,4.71,0,0,0,1.93,4.34,7.37,7.37,0,0,0,4.73,1.29,2.8,2.8,0,0,0,.73,2.64,2.77,2.77,0,0,0,2.66.68,4,4,0,0,0,.24,4.43,5.87,5.87,0,0,0,4,2.19,11.14,11.14,0,0,0,4.64-.6,2.35,2.35,0,0,0,3.08,2.95,6.42,6.42,0,0,0,2.69,4.2,6.49,6.49,0,0,0,4.9,1A1.8,1.8,0,0,0,143.9,341.2Z" style="fill:#BA68C8"></path><path d="M154.53,339.58a3.17,3.17,0,0,0,.1-3.83,5.07,5.07,0,0,0,1.4-4.13c-.07.14-.14.27-.22.4a4,4,0,0,1-4.29,1.72,3.28,3.28,0,0,1-1.8,3.56c-1.35.5-3.14-.75-2.79-2.15a3.06,3.06,0,0,1-4.35-3.7,4.94,4.94,0,0,1-4-.52,2.6,2.6,0,0,1-.7-3.6,8.47,8.47,0,0,1-4.91.4c-1.58-.51-2.81-2.44-2-3.89a3.12,3.12,0,0,1-2-.1c-.61-.33-.88-1.3-.33-1.71a4.53,4.53,0,0,1-3.61-1c-.9-.91-.72-2.83.53-3.13a10.38,10.38,0,0,1-4.26-6.21,27.33,27.33,0,0,1-.74-6.58,4.28,4.28,0,0,0-2.95.17c-2.93,1.34-2.74,5.85-.71,7.85a3.49,3.49,0,0,0-3.45,3,4.71,4.71,0,0,0,1.93,4.34,7.37,7.37,0,0,0,4.73,1.29,2.8,2.8,0,0,0,.73,2.64,2.77,2.77,0,0,0,2.66.68,4,4,0,0,0,.24,4.43,4.24,4.24,0,0,0,.33.39l1.51,1.14a7,7,0,0,0,2.2.66,11.14,11.14,0,0,0,4.64-.6,2.35,2.35,0,0,0,3.08,2.95,6.42,6.42,0,0,0,2.69,4.2,6.49,6.49,0,0,0,4.9,1,1.8,1.8,0,0,0,.8,2,1.72,1.72,0,0,0,.42.23c1,.38,1.82-.18,2.73,0a10.34,10.34,0,0,0,3,.62A6.11,6.11,0,0,0,154.53,339.58Z" style="opacity:0.2"></path></g><g id="freepik--trunk--inject-15"><path d="M67.14,308,44.46,260.4c-1.18-2.11,4.62-5.9,5.63-4.41l15.62,22.8Z" style="fill:#455a64"></path><polygon points="61.7 272.94 63 299.29 67.14 307.98 65.95 283.64 65.71 278.79 61.7 272.94" style="fill:#37474f"></polygon><path d="M47,259.48c1.83,5.29,3.91,10.48,6.19,15.58s4.8,10.17,7.47,15.11c1.5,2.79,3,5.62,4.59,8.33,0,.07.22,0,.17-.12-1.25-2.49-2.66-4.91-4-7.37s-2.64-5-3.9-7.51q-3.75-7.5-7-15.28-1.8-4.37-3.47-8.8C47.12,259.36,47,259.42,47,259.48Z" style="fill:#37474f"></path><path d="M49.92,262.57c.55,1,1.21,2,1.84,3l1.87,3c1.21,1.93,2.42,3.87,3.64,5.8a20,20,0,0,1,2.93,6.09c.47,2,.61,4.11,1.21,6.11a22.52,22.52,0,0,0,3.2,6.48s.08,0,.06,0a23.28,23.28,0,0,1-2.83-6c-.63-2.06-.83-4.17-1.26-6.27a17.58,17.58,0,0,0-2.62-5.9c-1.21-1.92-2.45-3.82-3.67-5.72l-2.18-3.38c-.69-1.07-1.35-2.17-2.11-3.19C50,262.52,49.91,262.54,49.92,262.57Z" style="fill:#37474f"></path><path d="M53.43,272.28c.38.84.89,1.64,1.34,2.45s.93,1.69,1.38,2.53c.92,1.72,1.81,3.46,2.69,5.19,0,.07.17,0,.14-.07-.83-1.76-1.71-3.51-2.62-5.23-.45-.85-.91-1.7-1.37-2.54a23.16,23.16,0,0,0-1.41-2.42C53.53,272.12,53.39,272.2,53.43,272.28Z" style="fill:#37474f"></path><path d="M52,262.73c.84,1.36,1.84,2.62,2.75,3.93s1.85,2.68,2.73,4a53.28,53.28,0,0,1,4.6,8.71c.68,1.71,1.12,3.47,1.68,5.21,0,0,.07,0,.06,0A21.55,21.55,0,0,0,62.55,280a41.74,41.74,0,0,0-2-4.53,67.94,67.94,0,0,0-5.08-8.21c-1.08-1.52-2.14-3.11-3.36-4.52C52.06,262.68,52,262.7,52,262.73Z" style="fill:#37474f"></path><path d="M71.26,347a20.36,20.36,0,0,0-5.16,10.26,11.3,11.3,0,0,0,8.32.89,1.88,1.88,0,0,0,.56-.25,2.06,2.06,0,0,0,.62-1c1.63-3.76,5-5.09,8.05-7.51a35.66,35.66,0,0,0,4.45-4.24c1.08-1.24,3.27-3.1,3.53-4.76.91,1,1.45,3.06,1.77,4.32a15.92,15.92,0,0,1,.38,5.67,27.81,27.81,0,0,1-2.66,8.84,2.69,2.69,0,0,0-.37,1.71c.18.75,1,1.17,1.67,1.45,2,.79,5.11,1.53,7.3.92,1.77-.49,3.48-3.68,4.61-5.14a63.59,63.59,0,0,0,8.27-13.22,6.77,6.77,0,0,0,.75-3.22,28,28,0,0,1,8.44,8.1,2.89,2.89,0,0,0,.74.85,2.48,2.48,0,0,0,1,.32,10.3,10.3,0,0,0,5.48-.77,25.51,25.51,0,0,0-1.9-7.83,25.85,25.85,0,0,0-1.84-3.59,16.53,16.53,0,0,1-1.28-2.63c5,.1,11.14,1.88,14.29,6a2.34,2.34,0,0,0,.71.69,2.18,2.18,0,0,0,.71.18,26.53,26.53,0,0,0,3.67.26,6.8,6.8,0,0,0,4.07-.94,1,1,0,0,0,.42-.51,1.16,1.16,0,0,0-.06-.55c-.9-3-3.85-4.68-6.05-6.73a88.54,88.54,0,0,0-6.94-6c-2.53-1.91-5.27-3.55-7.72-5.57-4.32-3.58-5.88-7.66-6.83-13a149.22,149.22,0,0,1-1.87-25.59l-.06-21.77a9.26,9.26,0,0,0-.59-3.58,3.34,3.34,0,0,0-.15-.38c0-.06-.05-.12-.07-.17a5.94,5.94,0,0,0-.27-.57,5,5,0,0,0-.32-.6,17.52,17.52,0,0,0-6.61-6.17,29.1,29.1,0,0,0-3-1.5c-.31-.14-.62-.27-.94-.39s-.7-.27-1.06-.39c-.67-.24-1.36-.47-2.06-.67-1-.3-2.13-.57-3.23-.78-.35-.08-.7-.14-1-.2-1-.18-2-.31-2.93-.42-.37,0-.75-.08-1.13-.1-.53,0-1-.08-1.57-.11l-1.05,0-1.26,0h-.15l-1.21,0-1.21.05h-.21c-.4,0-.8.05-1.19.09s-.87.08-1.3.12l-1.29.16-1.08.17c-.69.11-1.36.24-2,.39l3.15,1.81.33.2-.27,21L80.82,250,78,248.37l-.65.21-1.06.38c-.33.11-.64.24-1,.37l-.14,0c-.33.14-.65.27-1,.42l2.74,1.42.34,22.18a27.91,27.91,0,0,1-4.42-2,19.71,19.71,0,0,1-2.64-1.81l-2-12.63-1.84-1.47q-.27.33-.51.66l0,.05a7.78,7.78,0,0,0-.47.7c-.15.24-.3.48-.43.72s-.19.37-.27.56a4.32,4.32,0,0,0-.19.45c-.08.19-.16.38-.22.56a9.38,9.38,0,0,0-.42,1.7c0,.18-.05.35-.07.54s0,.48,0,.74,0,.48,0,.71c.86,11.53.71,23.23,1.06,34.79.17,5.81,1.17,11.72.23,17.52-1,6.39-5.32,11.94-10.11,16.05-2.38,2.05-4.91,3.91-7.27,6a29.42,29.42,0,0,0-4.29,4.7c-.46.62-1.85,2.05-1.67,2.87.65,2.78,7.65,1.81,9.13.82A29,29,0,0,1,57.41,342c2.64-.91,5.78-.31,8.49,0,3.12.38,6.19.95,9.33,1.23A32.87,32.87,0,0,0,71.26,347Z" style="fill:#455a64"></path><polygon points="106.8 332.38 97.95 318.13 102.89 299.52 102.37 288.97 108.06 299.22 103.59 319.8 106.8 332.38" style="fill:#263238"></polygon><polygon points="106.8 332.38 104.39 328.62 101.89 319.42 105.7 299.89 102.47 290.97 102.37 288.97 108.06 299.22 103.59 319.8 106.8 332.38" style="fill:#37474f"></polygon><path d="M76.93,251.22l.34,22.18a24.39,24.39,0,0,1-7.06-3.85l-2-12.63-1.84-1.47a12.65,12.65,0,0,0-1.44,2.13h0a10.85,10.85,0,0,0-1.22,5.27c.13,3.93,2.13,7.24,6.48,10.07a44.65,44.65,0,0,0,12.13,4.7c9.86,2.17,18.14,3.47,28.35-2.43a15.75,15.75,0,0,0,7.68-12.64c.12-4.31-2.66-8.59-7.94-11.47-4-2.2-9.73-4.83-14.23-5.46-5.35-.76-9.5.77-14.73,1.85l3.15,1.81.06,21.25L80.82,250,78,248.37a33,33,0,0,0-3.78,1.43Z" style="fill:#37474f"></path><path d="M66.32,255.45A10.84,10.84,0,0,0,64,264.89c1.15,5,5.85,8.16,10.36,10a50,50,0,0,0,7.12,2.38c4.89,1.08,9.86,2.12,14.86,2a30.1,30.1,0,0,0,14.2-4.25c6.27-3.59,10.25-12.85,5.36-19.06a17.55,17.55,0,0,0-5.69-4.75c-4.38-2.37-9-4.56-14-5.42s-10,.73-14.85,1.72c4.89-1.07,9.82-2.73,14.89-1.94s9.63,3,14.06,5.37a17.68,17.68,0,0,1,5.81,4.82c5.07,6.36,1.06,15.92-5.4,19.66a33.19,33.19,0,0,1-6.94,3,32.6,32.6,0,0,1-15,.66c-6.2-1-12.43-2.5-18-5.59a16,16,0,0,1-5.57-5.06,10.88,10.88,0,0,1,1-13Z" style="fill:#455a64"></path><polygon points="74.19 249.81 75.36 272.63 77.27 273.4 76.93 251.22 74.19 249.81" style="fill:#455a64"></polygon><polygon points="81.39 247.47 82.32 258.14 84.6 270.53 84.54 249.28 81.39 247.47" style="fill:#455a64"></polygon><path d="M67.12,266.07a12.87,12.87,0,0,0,3.09,3.48l-2-12.63C65.77,259.79,65.35,263,67.12,266.07Zm9.81-14.85.34,22.18c4.14,1.52,9.48,3.31,14.86,3.33,6.3,0,12.56-.35,17.26-4.11,5.6-4.47,8.12-9.68,5.52-14.19a15.44,15.44,0,0,0-5.75-5.29c-3.33-1.92-8.22-4.54-12.48-5.18a26.29,26.29,0,0,0-12.14,1.32l.06,21.25L80.82,250A34.49,34.49,0,0,0,76.93,251.22Z" style="fill:#263238"></path><path d="M107.61,261.48s.09,0,.09,0c-.28-2.56.39-5.13.75-7.64,0-.34.09-.67.13-1l-.36-.21c0,.59-.13,1.17-.22,1.75A21.94,21.94,0,0,0,107.61,261.48Z" style="fill:#37474f"></path><path d="M111.4,254.63l-.37-.28a42.38,42.38,0,0,1-.68,6.46c-.41,2.42-.89,4.83-1.17,7.27-.18,1.64-.28,3.29-.33,4.95l.39-.29c.05-1.46.13-2.92.29-4.37C110,263.78,111.26,259.26,111.4,254.63Z" style="fill:#37474f"></path><path d="M112.39,262.23c-.27,2.71-.46,5.42-.51,8.14l.4-.42c0-.54,0-1.07,0-1.61.17-3.79.59-7.55,1.06-11.31,0-.18,0-.36.07-.54l-.35-.37C112.83,258.16,112.59,260.19,112.39,262.23Z" style="fill:#37474f"></path><path d="M104.65,251.39A20.1,20.1,0,0,0,105,258a27.55,27.55,0,0,1,.81,7.17,43.16,43.16,0,0,1-1.12,5.94,18.77,18.77,0,0,0-.52,4.28l.37-.12c-.06-3.25,1.3-6.46,1.67-9.68.5-4.35-1.43-8.5-1.24-12.84a14.85,14.85,0,0,1,.2-1.79c-.12-.07-.25-.13-.38-.19C104.71,251,104.68,251.18,104.65,251.39Z" style="fill:#37474f"></path><path d="M78.9,265.77A41.33,41.33,0,0,1,79,274l.4.14a32.79,32.79,0,0,0-.49-8.39Z" style="fill:#37474f"></path><path d="M92.47,255.74c.47,3.39,1.28,6.76,1.27,10.21a15.28,15.28,0,0,1-1,5.55c0,.09.13.05.16,0,1.6-2.87,1.61-6.41,1.22-9.59-.43-3.37-1.31-6.69-1.45-10.1a17.18,17.18,0,0,1,.29-4.07H92.6A21.06,21.06,0,0,0,92.47,255.74Z" style="fill:#37474f"></path><path d="M86.84,254.35c-.2,1.33-.4,2.67-.5,4a38.47,38.47,0,0,0,0,4.68c.19,4.4.42,8.82.85,13.21l.63.11c-.09-.93-.19-1.85-.27-2.77-.26-3.24-.45-6.49-.64-9.73a44.3,44.3,0,0,1,.25-8.69,45.15,45.15,0,0,0,.68-6.77l-.28,0A55.79,55.79,0,0,1,86.84,254.35Z" style="fill:#37474f"></path><path d="M96,247.88c0,3.23.58,6.5.92,9.66a36.77,36.77,0,0,1,.18,8.19c-.18,1.61-.61,3.17-.91,4.76a23.25,23.25,0,0,0-.4,4.79c0,.46,0,.93.06,1.39l.45,0c0-.24,0-.47,0-.71a21,21,0,0,1,.48-4.81c.33-1.55.74-3.08,1-4.65.76-5.3-.45-10.6-.9-15.87-.07-.88-.11-1.77-.13-2.65h0C96.46,247.92,96.24,247.91,96,247.88Z" style="fill:#37474f"></path><path d="M81,271.42c.1,1.12.19,2.24.28,3.36l.51.15c-.35-3.83-.66-7.67-1.15-11.49a68,68,0,0,0-1.87-9.38c0-.07-.18,0-.17.06A114.48,114.48,0,0,1,81,271.42Z" style="fill:#37474f"></path><path d="M101.45,251.24c-.08,2.32.65,4.55,1,6.84.6,4.58-.83,9.11-2,13.49a39.83,39.83,0,0,0-1,4.83l.15,0c.61-3.47,1.84-6.8,2.68-10.21a24.84,24.84,0,0,0,.87-6.06c0-2.52-.8-4.9-1.06-7.39a14,14,0,0,1,0-3.17l-.39-.16A14.37,14.37,0,0,0,101.45,251.24Z" style="fill:#37474f"></path><path d="M95.54,269a24.56,24.56,0,0,0,.51-6.89A39,39,0,0,0,94.48,254s0,0,0,0a68.17,68.17,0,0,1,1.18,7.51,25,25,0,0,1-.49,7.37c-.57,2.62-1.4,5.21-1.86,7.84h.38c0-.3.09-.61.16-.91C94.31,273.54,95,271.32,95.54,269Z" style="fill:#37474f"></path><path d="M90.84,263.28a19.39,19.39,0,0,1,0,5.59c-.36,2.09-1.07,4.09-1.27,6.21,0,.49-.07,1-.07,1.5l.4,0c0-.46,0-.92.06-1.39.21-2.12,1.05-4.08,1.44-6.16.7-3.6-.26-7.17-.91-10.7a28.36,28.36,0,0,1-.53-6.23c0-.1-.19,0-.2.05C89.24,255.91,90.41,259.62,90.84,263.28Z" style="fill:#37474f"></path><path d="M92.13,276.73c6.3,0,12.56-.35,17.26-4.11,3.08-2.45,5.21-5.13,6.09-7.79-3.89,4.1-13.79,6.15-26.65,5.6-1.48-.07-2.89-.16-4.23-.28v.38l-.07-.39a61.05,61.05,0,0,1-7.33-1.07l.07,4.33C81.41,274.92,86.75,276.71,92.13,276.73Zm-25-10.66a12.87,12.87,0,0,0,3.09,3.48l-.51-3.14c-2.54-1.49-3.71-3.26-3.6-5.12A7.39,7.39,0,0,0,67.12,266.07Z" style="opacity:0.2"></path><path d="M93.75,285.14c.21,2.16.55,4.3.76,6.46s.36,4.38.4,6.57a53.21,53.21,0,0,1-1.19,12.65,40.41,40.41,0,0,1-2.3,7c-.06.14.17.09.22,0,3.78-8,4.14-17,3.36-25.69a61.65,61.65,0,0,0-1-7.15C94,284.8,93.73,285,93.75,285.14Z" style="fill:#37474f"></path><path d="M90.72,281.39A35.54,35.54,0,0,0,90.2,286c-.13,1.5-.22,3-.29,4.5q-.19,4.56,0,9.12c0,.11.23,0,.23-.07,0-3,0-6,.12-9.06.07-1.48.16-2.95.29-4.43s.39-3.16.43-4.74C91,281.16,90.75,281.29,90.72,281.39Z" style="fill:#37474f"></path><path d="M114.48,274.23c.09,1.53.36,3.06.53,4.58s.28,2.87.39,4.3q.33,4.41.39,8.83c.06,5.79-.41,11.53-.74,17.31-.09,1.57-.16,3.14-.17,4.72a29,29,0,0,0,.2,4.66s.07,0,.07,0c0-1.47,0-2.93,0-4.4s.1-3,.19-4.52c.18-2.9.43-5.79.61-8.69a125.86,125.86,0,0,0-.11-17.26c-.12-1.63-.27-3.27-.46-4.9a39.26,39.26,0,0,0-.67-4.71C114.69,274,114.47,274.13,114.48,274.23Z" style="fill:#37474f"></path><path d="M105.19,279.43a24.73,24.73,0,0,0,2,10.69c1.33,2.78,3.37,5.58,3.09,8.82,0,.06.13,0,.13,0,.41-3.28-1.58-6.11-2.89-9A19.81,19.81,0,0,1,106,285c-.32-1.88-.34-3.78-.56-5.67C105.45,279.16,105.19,279.3,105.19,279.43Z" style="fill:#37474f"></path><path d="M109.88,279.05a22.69,22.69,0,0,0,.5,8.8c.43,1.47,1,2.9,1.35,4.38a41.62,41.62,0,0,1,.8,4.41s.08,0,.08,0a23.15,23.15,0,0,0-.57-4.38c-.34-1.52-.88-3-1.32-4.47a18.4,18.4,0,0,1-.66-4.36c-.06-1.47,0-2.94,0-4.41C110.05,278.92,109.89,279,109.88,279.05Z" style="fill:#37474f"></path><path d="M122.94,343.68c-1.47-1.92-1.64-4.28-2.47-6.46a25.47,25.47,0,0,0-3.9-6.11,26.23,26.23,0,0,1-2.24-3.3,36.38,36.38,0,0,1-1.79-4c-1.08-2.7-2.1-5.55-1.83-8.51a28.9,28.9,0,0,1,1.15-5.18c.44-1.59.89-3.19,1.29-4.79,0-.11-.08-.3-.15-.13-.56,1.52-1.07,3.06-1.59,4.59a26.93,26.93,0,0,0-1.28,4.48,16.22,16.22,0,0,0,1.26,8.24,32.23,32.23,0,0,0,3.8,7.72c1.56,2.17,3.44,4.18,4.51,6.67,1,2.29.92,5.49,3.07,7.11C123,344.2,123,343.81,122.94,343.68Z" style="fill:#37474f"></path><path d="M130,328.13a31.17,31.17,0,0,1-6.69-3.52,12.42,12.42,0,0,1-4.1-6.47,36.78,36.78,0,0,1-.91-9.76c0-.17-.17-.16-.17,0-.13,5.1-.08,10.74,3.27,14.94a15.6,15.6,0,0,0,6,4.22,50.76,50.76,0,0,1,6.79,3.42,35.5,35.5,0,0,1,7,6.22s.07-.06.05-.09A27.77,27.77,0,0,0,130,328.13Z" style="fill:#37474f"></path><path d="M138.93,337.63c-2.31-.27-3.68-2.17-5.16-3.76a8,8,0,0,0-5.09-2.6,12,12,0,0,1-5.89-2,10.22,10.22,0,0,1-3.4-4.59c-.09-.25-.29-.05-.23.15a10.31,10.31,0,0,0,8.57,7,13,13,0,0,1,3.54.79,8.79,8.79,0,0,1,2.68,2.29c1.31,1.49,2.83,3.26,5,3.11C139.12,338,139.07,337.65,138.93,337.63Z" style="fill:#37474f"></path><path d="M99,285.79c0-.12-.13,0-.12.07,1,5.13,1.93,10.35,1.19,15.58-.7,4.9-2.87,9.44-4.56,14.05s-2.93,9.35-2,14.13a34.15,34.15,0,0,0,2.54,6.75,21.87,21.87,0,0,1,1.75,7.43,36.38,36.38,0,0,1-.63,8.52c-.47,2.63-1.44,5.41-.44,8,.07.19.3.14.28-.06-.27-2.64.46-5.18.92-7.75a40,40,0,0,0,.66-7.16,23.21,23.21,0,0,0-1.07-7c-.74-2.3-2-4.41-2.76-6.7-3.4-10,4.17-19.4,5.76-29C101.46,297.05,100.38,291.29,99,285.79Z" style="fill:#37474f"></path><path d="M101.27,345.42a17,17,0,0,1-.85-4.92c.08-1.44.48-2.86.6-4.31a21.9,21.9,0,0,0-1.3-9.42c-.08-.24-.29,0-.22.14a21.07,21.07,0,0,1,1.17,9.41c-.14,1.36-.58,2.68-.69,4.05a14.45,14.45,0,0,0,.66,4.51c.66,2.72,1.71,5.64,1.53,8.47a5.53,5.53,0,0,1-.44,2,5,5,0,0,1-.55.95c-.35.44-.63.18-.85-.26a5.09,5.09,0,0,1-.19-2.39,7,7,0,0,1,.24-1.29c.18.57.37,1.14.59,1.69.09.21.26.1.24-.09a26,26,0,0,0-.53-2.74c0-.21-.49-.59-.64-.27a7.38,7.38,0,0,0-.69,3.49c0,.89.18,2.31,1,2.86,1.75,1.16,2.37-3.31,2.37-4.21C102.72,350.47,101.87,347.9,101.27,345.42Z" style="fill:#37474f"></path><path d="M108.94,325.38c-.12-.2-.26.06-.18.2a10.6,10.6,0,0,1,1.37,6.92,12.14,12.14,0,0,1-3,6.22c-2.78,3.4-4,8.46-2,12.54.08.16.21,0,.19-.1a15.72,15.72,0,0,1,.2-7.71,11.88,11.88,0,0,1,1.5-3.08c.71-1,1.58-2,2.21-3.07A11.78,11.78,0,0,0,108.94,325.38Z" style="fill:#37474f"></path><path d="M88.6,319.8c-.42-5.17-1-10.33-1.48-15.5-.24-2.86-.43-5.73-.48-8.61,0-1.59,0-3.19,0-4.79,0-1.12,0-2.33.15-3.49-.12.85-.28,1.69-.35,2.54-.1,1.22-.16,2.44-.19,3.66-.08,2.58,0,5.17.12,7.75.29,5.29.92,10.55,1.38,15.83a91.4,91.4,0,0,1,.36,16.12,19.91,19.91,0,0,1-5.64,12.44c-1.91,1.9-4.27,3.16-6.4,4.77-2,1.49-3.65,3.31-3.83,5.85,0,.12.16.34.24.15a12.39,12.39,0,0,1,4-5.16c2-1.6,4.36-2.81,6.25-4.6a19.56,19.56,0,0,0,5.86-11.17C89.45,330.42,89,325,88.6,319.8Z" style="fill:#37474f"></path><path d="M74.11,328.93c-.42-3.89-1.71-7.65-2-11.56s.9-8,1.37-12A94.1,94.1,0,0,0,74,293c0-2.22-.12-4.45-.24-6.67s-.16-4.31-.46-6.43c0-.14-.19-.21-.2,0,0,2,.14,4,.24,6s.17,4,.2,6.06a93.29,93.29,0,0,1-.64,12.72c-.47,3.87-1.62,7.72-1.5,11.64s1.3,7.43,1.92,11.14a23.16,23.16,0,0,1,.18,6.44c-.23,2.16-.61,4.35,0,6.48.07.24.38.25.34,0a28,28,0,0,1,.23-6.2A23.45,23.45,0,0,0,74.11,328.93Z" style="fill:#37474f"></path><path d="M80.13,333.23c-1.41-3-3-5.82-3.81-9.08a20.92,20.92,0,0,1-.13-9.54c.68-3,2.16-5.69,3.07-8.6,1.13-3.6.94-7.34.73-11.06,0-.11-.12-.08-.12,0A32.8,32.8,0,0,1,79,305.09c-.88,2.89-2.37,5.55-3.19,8.46-1.6,5.65-.32,11.52,2.31,16.64,1.86,3.62,3.78,7.13,3,11.34,0,.15.2.44.29.2C82.39,338.94,81.33,335.79,80.13,333.23Z" style="fill:#37474f"></path><path d="M84.69,318.41a43.16,43.16,0,0,0-3.09-10.07c-.07-.16-.19,0-.14.13a45.23,45.23,0,0,1,3.2,15.23,29.15,29.15,0,0,1,0,3.62c-.07.85-.4,3.54-1.55,3.5S81.2,329,80.86,328.1a20.94,20.94,0,0,1-.91-3.3c-.52-2.41-1-5.11.21-7.38a10.67,10.67,0,0,1,.5,6.13c0,.12.13.4.23.2a8,8,0,0,0-.54-7.18c-.07-.14-.36-.31-.48-.12-1.44,2.28-1.18,5-.68,7.54.47,2.35,1,5,2.7,6.8.66.69,1.53,1.27,2.25.33a6.94,6.94,0,0,0,1.1-3.57A36.36,36.36,0,0,0,84.69,318.41Z" style="fill:#37474f"></path><path d="M69.42,312.81c0-4.94-.15-9.89-.27-14.83-.13-5.58-.2-11.16-.49-16.73,0-.07-.06,0-.06,0-.19,9.73.07,19.47.21,29.2.06,4.55.19,9.33-1.59,13.62A14.29,14.29,0,0,1,63.87,329a23.38,23.38,0,0,1-5.07,3.39,37.26,37.26,0,0,0-5.55,3.36,8.28,8.28,0,0,0-3.44,5c0,.16.22.48.35.26a16.91,16.91,0,0,1,3.92-4.58,36.5,36.5,0,0,1,4.86-3A29.4,29.4,0,0,0,64,330.2a13.38,13.38,0,0,0,3.45-4.67C69.27,321.55,69.47,317.12,69.42,312.81Z" style="fill:#37474f"></path><path d="M69.52,331.1c-.52.35-.91.87-1.4,1.27a10,10,0,0,1-1.52,1,10.15,10.15,0,0,1-3.67,1.23,16.8,16.8,0,0,0-3.8.58,13.61,13.61,0,0,0-3.38,2.06c0,.05,0,.25,0,.2a15.45,15.45,0,0,1,3.76-2c1.45-.4,3-.09,4.46-.37a10,10,0,0,0,3.34-1.27,6.17,6.17,0,0,0,2.55-2.3C70,331.41,69.76,330.94,69.52,331.1Z" style="fill:#37474f"></path><path d="M84.38,306.37c-.51-2.33-.87-4.69-1.25-7a95,95,0,0,1-1.28-14.39c0-.11-.12-.12-.12,0a97.09,97.09,0,0,0,.91,13.95A64.07,64.07,0,0,0,84,305.75a34.07,34.07,0,0,1,1.19,7.43c0,.14.15.14.15,0A31.35,31.35,0,0,0,84.38,306.37Z" style="fill:#37474f"></path><path d="M76.84,277.77c0-.2-.29-.32-.27,0a107.17,107.17,0,0,1-2,29s0,0,0,0A88.4,88.4,0,0,0,76.84,277.77Z" style="fill:#37474f"></path><path d="M75.63,272.73a26.59,26.59,0,0,1-2.78-1.37,19.71,19.71,0,0,1-2.64-1.81l-2-12.63-1.84-1.47q-.27.33-.51.66l0,.05a7.78,7.78,0,0,0-.47.7c-.15.24-.3.48-.43.72s-.19.37-.27.56a4.32,4.32,0,0,0-.19.45c-.08.19-.16.38-.22.56a9.38,9.38,0,0,0-.42,1.7c0,.18-.05.35-.07.54s0,.48,0,.74,0,.48,0,.71c.86,11.53.71,23.23,1.06,34.79.17,5.81,1.17,11.72.23,17.52-1,6.39-5.32,11.94-10.11,16.05-2.38,2.05-4.91,3.91-7.27,6a29.42,29.42,0,0,0-4.29,4.7c-.46.62-1.85,2.05-1.67,2.87.65,2.78,7.65,1.81,9.13.82l.54-.35c-1.45,0-2.9-.09-4.35-.22a1.37,1.37,0,0,1-.92-.33c-.44-.48,0-1.25.4-1.75,2.48-3,5-6.09,8.43-8s7.27-2.65,10.4-4.87c5.4-3.85,7-11.06,7.92-17.63A255.44,255.44,0,0,0,75.63,272.73Z" style="opacity:0.1"></path></g><g id="freepik--bush--inject-15"><path d="M132.7,321.8c5.82,4.57,11.71,9.22,16.09,15.18a7.51,7.51,0,0,1,1.56,3.13c.22,1.34-.34,3.08-1.95,3.12a2,2,0,0,1-2-1.51,3.7,3.7,0,0,1-2.71.66,2.88,2.88,0,0,1-2.16-1.7,2.33,2.33,0,0,1,.65-2.59,4.62,4.62,0,0,1-3.44-1.15,4,4,0,0,1-1.31-2.82,1.8,1.8,0,0,1-2.42-.46,3.47,3.47,0,0,1-.51-2.62,4.83,4.83,0,0,1-4,.86,5.13,5.13,0,0,1-3.57-2.4,3.39,3.39,0,0,1,.54-4.08,2.71,2.71,0,0,1-2.18-.35c-.59-.48-.68-1.58,0-1.92a4.13,4.13,0,0,1-3.21-1.45,3.24,3.24,0,0,1-.42-3.42,2.68,2.68,0,0,1,3.08-1.34C128,318,130,319.68,132.7,321.8Z" style="fill:#BA68C8"></path><path d="M149.09,337.41c-1.21,0-2.45-1.07-2.16-2.26a3.06,3.06,0,0,1-4.35-3.7,4.94,4.94,0,0,1-4-.52,2.6,2.6,0,0,1-.7-3.6,8.47,8.47,0,0,1-4.91.4c-1.58-.51-2.81-2.44-2-3.89a3.12,3.12,0,0,1-2-.1c-.61-.33-.88-1.3-.33-1.71a4.53,4.53,0,0,1-3.61-1c-.9-.91-.72-2.83.53-3.13a8.25,8.25,0,0,1-1.39-1.09,2.71,2.71,0,0,0-2.49,1.43,3.24,3.24,0,0,0,.42,3.42,4.13,4.13,0,0,0,3.21,1.45c-.68.34-.59,1.44,0,1.92a2.71,2.71,0,0,0,2.18.35,3.39,3.39,0,0,0-.54,4.08,5.13,5.13,0,0,0,3.57,2.4,4.83,4.83,0,0,0,4-.86,3.47,3.47,0,0,0,.51,2.62,1.8,1.8,0,0,0,2.42.46,4,4,0,0,0,1.31,2.82,4.62,4.62,0,0,0,3.44,1.15,2.33,2.33,0,0,0-.65,2.59,2.88,2.88,0,0,0,2.16,1.7,3.7,3.7,0,0,0,2.71-.66,2,2,0,0,0,2,1.51c1.61,0,2.17-1.78,1.95-3.12A6.69,6.69,0,0,0,149.09,337.41Z" style="opacity:0.2"></path></g><g id="freepik--Fungus--inject-15"><path d="M55.13,309.08c.49,2,2.46,3.94,7.16,4.69s12.52-1.12,15.39-6.23C72.62,310.14,60.88,312.05,55.13,309.08Z" style="fill:#e0e0e0"></path><path d="M62.88,304.24c1.08,2.44,7.89,4.16,14.8,3.3a13,13,0,0,1-3.09,2.29c-1.09.64-1.72,1.52-3.07,1.74-.55.08-1.1.07-1.64.2a29.18,29.18,0,0,0-3,1.41,4.13,4.13,0,0,1-2.69,0,10.15,10.15,0,0,0-2.09-.78c-.71-.08-1.42.18-2.13.16-1.61,0-2.84-1.36-4.22-2.19a10.74,10.74,0,0,1-1.44-.89A1.79,1.79,0,0,1,53.6,308c.11-1.16,1.7-1.68,1.93-2.83.09-.45-.05-1,.18-1.36a1.37,1.37,0,0,1,.64-.52,8.38,8.38,0,0,1,2.22-.6c1.38-.24,2.76-.54,4.16-.69Z" style="fill:#BA68C8"></path><path d="M62.88,304.24c1.08,2.44,7.89,4.16,14.8,3.3a13,13,0,0,1-3.09,2.29c-1.09.64-1.72,1.52-3.07,1.74-.55.08-1.1.07-1.64.2a29.18,29.18,0,0,0-3,1.41,4.13,4.13,0,0,1-2.69,0,10.15,10.15,0,0,0-2.09-.78c-.71-.08-1.42.18-2.13.16-1.61,0-2.84-1.36-4.22-2.19a10.74,10.74,0,0,1-1.44-.89A1.79,1.79,0,0,1,53.6,308c.11-1.16,1.7-1.68,1.93-2.83.09-.45-.05-1,.18-1.36a1.37,1.37,0,0,1,.64-.52,8.38,8.38,0,0,1,2.22-.6c1.38-.24,2.76-.54,4.16-.69Z" style="fill:#fff;opacity:0.5"></path><path d="M62.88,304.24l-.13-1.85-.36-.32-.91.13a5.67,5.67,0,0,0,2.1,4.12c1.8,1.52,4.17,2.18,6.34,2.95a.71.71,0,0,1,.28.16.43.43,0,0,1-.14.61,2.13,2.13,0,0,1-1.09.2,2.19,2.19,0,0,0-1.11.34c-.46.33-.74.93-1.27,1.14-.79.3-1.57-.38-2.33-.77a3.51,3.51,0,0,0-2.84-.13,4.39,4.39,0,0,1-1.34.48,2.46,2.46,0,0,1-1.86-1,4.58,4.58,0,0,0-1.63-1.44c-.94-.37-2.23-.06-2.82-.89a1.28,1.28,0,0,1-.11-.2,1.27,1.27,0,0,0-.06.28,1.79,1.79,0,0,0,.71,1.46,10.74,10.74,0,0,0,1.44.89c1.38.83,2.61,2.16,4.22,2.19.71,0,1.42-.24,2.13-.16a10.15,10.15,0,0,1,2.09.78,4.13,4.13,0,0,0,2.69,0,29.18,29.18,0,0,1,3-1.41c.54-.13,1.09-.12,1.64-.2,1.35-.22,2-1.1,3.07-1.74a13,13,0,0,0,3.09-2.29C70.77,308.4,64,306.68,62.88,304.24Z" style="fill:#BA68C8;opacity:0.4"></path><path d="M58.87,303.13c.33,1.35,1.48,2.56,4.66,3.06S72,305.44,74,302C70.53,303.74,62.76,305.14,58.87,303.13Z" style="fill:#e0e0e0"></path><path d="M63.87,299.74c.73,1.65,5.4,2.83,10.08,2.24-.14,0-.5.49-.63.59a8.52,8.52,0,0,1-.74.57,11.16,11.16,0,0,1-1.66.92,16.42,16.42,0,0,0-1.59.75,3.72,3.72,0,0,1-1.75.61c-.52,0-1-.17-1.54-.15a8.71,8.71,0,0,0-1.31.27,4,4,0,0,1-2.66-.43,3.9,3.9,0,0,0-1.14-.56c-.25-.05-.51,0-.76-.08a1.91,1.91,0,0,1-1.3-1.34,1.44,1.44,0,0,0-.18-.4c-.18-.24-.53-.3-.7-.55s0-.83.32-1.11.72-.49.92-.86c.1-.18.14-.39.23-.57a1.51,1.51,0,0,1,.84-.73,4.59,4.59,0,0,1,1.11-.25c.81-.12,1.6-.32,2.42-.41Z" style="fill:#BA68C8"></path><path d="M63.87,299.74c.73,1.65,5.4,2.83,10.08,2.24-.14,0-.5.49-.63.59a8.52,8.52,0,0,1-.74.57,11.16,11.16,0,0,1-1.66.92,16.42,16.42,0,0,0-1.59.75,3.72,3.72,0,0,1-1.75.61c-.52,0-1-.17-1.54-.15a8.71,8.71,0,0,0-1.31.27,4,4,0,0,1-2.66-.43,3.9,3.9,0,0,0-1.14-.56c-.25-.05-.51,0-.76-.08a1.91,1.91,0,0,1-1.3-1.34,1.44,1.44,0,0,0-.18-.4c-.18-.24-.53-.3-.7-.55s0-.83.32-1.11.72-.49.92-.86c.1-.18.14-.39.23-.57a1.51,1.51,0,0,1,.84-.73,4.59,4.59,0,0,1,1.11-.25c.81-.12,1.6-.32,2.42-.41Z" style="fill:#fff;opacity:0.5"></path><path d="M74,302c-4.68.59-9.35-.59-10.08-2.24l0-1.49c-.46.05-.91.14-1.36.22a3.49,3.49,0,0,0,.63,1.86A4.39,4.39,0,0,0,65.39,302a3.82,3.82,0,0,1,1.86.83.77.77,0,0,1,.19.34c.08.46-.49.77-1,.75a4.38,4.38,0,0,0-1.39-.09c-.54.15-.91.74-1.47.81-.79.1-1.32-.84-2.08-1a4.2,4.2,0,0,0-1-.05,1.06,1.06,0,0,1-.87-.4c-.15-.23-.13-.54-.3-.75s-.69-.29-1.05-.42a1.36,1.36,0,0,1-.41-.26.59.59,0,0,0,.07.52c.17.25.52.31.7.55a1.44,1.44,0,0,1,.18.4,1.91,1.91,0,0,0,1.3,1.34c.25,0,.51,0,.76.08a3.9,3.9,0,0,1,1.14.56,4,4,0,0,0,2.66.43,8.71,8.71,0,0,1,1.31-.27c.52,0,1,.16,1.54.15a3.72,3.72,0,0,0,1.75-.61,16.42,16.42,0,0,1,1.59-.75,11.16,11.16,0,0,0,1.66-.92,8.52,8.52,0,0,0,.74-.57C73.45,302.47,73.81,302,74,302Z" style="fill:#BA68C8;opacity:0.4"></path><path d="M61.75,298.11c.19.79.87,1.49,2.72,1.78s5-.43,6.08-2.45C68.55,298.46,64,299.28,61.75,298.11Z" style="fill:#e0e0e0"></path><path d="M64.67,296.13c.43,1,3.15,1.65,5.88,1.31-.09,0-.29.28-.37.34a4.46,4.46,0,0,1-.43.33,6.14,6.14,0,0,1-1,.54c-.32.15-.61.26-.93.44a2.18,2.18,0,0,1-1,.35c-.3,0-.6-.09-.9-.08a5.1,5.1,0,0,0-.76.15,2.33,2.33,0,0,1-1.55-.25,2.46,2.46,0,0,0-.67-.33c-.14,0-.3,0-.44,0a1.11,1.11,0,0,1-.76-.78.74.74,0,0,0-.11-.24c-.1-.13-.3-.17-.4-.31s0-.49.18-.66a2,2,0,0,0,.54-.5,3.24,3.24,0,0,0,.13-.33.92.92,0,0,1,.49-.42,2.45,2.45,0,0,1,.65-.15c.47-.07.94-.19,1.41-.24Z" style="fill:#BA68C8"></path><path d="M64.67,296.13c.43,1,3.15,1.65,5.88,1.31-.09,0-.29.28-.37.34a4.46,4.46,0,0,1-.43.33,6.14,6.14,0,0,1-1,.54c-.32.15-.61.26-.93.44a2.18,2.18,0,0,1-1,.35c-.3,0-.6-.09-.9-.08a5.1,5.1,0,0,0-.76.15,2.33,2.33,0,0,1-1.55-.25,2.46,2.46,0,0,0-.67-.33c-.14,0-.3,0-.44,0a1.11,1.11,0,0,1-.76-.78.74.74,0,0,0-.11-.24c-.1-.13-.3-.17-.4-.31s0-.49.18-.66a2,2,0,0,0,.54-.5,3.24,3.24,0,0,0,.13-.33.92.92,0,0,1,.49-.42,2.45,2.45,0,0,1,.65-.15c.47-.07.94-.19,1.41-.24Z" style="fill:#fff;opacity:0.5"></path><path d="M64.67,296.13l0-.87a5.07,5.07,0,0,0-.54.09,1.47,1.47,0,0,0-.14.77,1.45,1.45,0,0,0,.72,1.08,7.07,7.07,0,0,0,1.1.36,1.09,1.09,0,0,1,.79.76c0,.12,0,.26-.12.31a.27.27,0,0,1-.16,0c-.42,0-.89-.25-1.23,0-.1.07-.17.19-.28.26a.7.7,0,0,1-.76-.13,2,2,0,0,0-.7-.42c-.32-.06-.71.1-.94-.13s-.15-.35-.26-.5-.64-.24-.91-.46v0a.35.35,0,0,0,0,.3c.1.14.3.18.4.31a.74.74,0,0,1,.11.24,1.11,1.11,0,0,0,.76.78c.14,0,.3,0,.44,0a2.46,2.46,0,0,1,.67.33,2.33,2.33,0,0,0,1.55.25,5.1,5.1,0,0,1,.76-.15c.3,0,.6.09.9.08a2.18,2.18,0,0,0,1-.35c.32-.18.61-.29.93-.44a6.14,6.14,0,0,0,1-.54,4.46,4.46,0,0,0,.43-.33c.07-.06.28-.33.37-.34C67.82,297.78,65.1,297.09,64.67,296.13Z" style="fill:#BA68C8;opacity:0.4"></path><path d="M57.12,328.69c.2.78.87,1.49,2.72,1.78s5-.44,6.08-2.45C63.92,329,59.39,329.86,57.12,328.69Z" style="fill:#e0e0e0"></path><path d="M60,326.71c.76,1.31,3.15,1.65,5.88,1.31-.08,0-.29.28-.36.34a4.59,4.59,0,0,1-.44.33,5.73,5.73,0,0,1-1,.54,8.59,8.59,0,0,0-.92.44,2.26,2.26,0,0,1-1,.35c-.3,0-.59-.09-.89-.08a5.23,5.23,0,0,0-.77.15,2.33,2.33,0,0,1-1.55-.25,2.4,2.4,0,0,0-.66-.33c-.15,0-.3,0-.45,0a1.13,1.13,0,0,1-.76-.78,1,1,0,0,0-.1-.24c-.11-.13-.31-.17-.41-.32s0-.48.18-.65.43-.28.54-.5.08-.22.14-.33a.91.91,0,0,1,.49-.43,2.7,2.7,0,0,1,.64-.14c.48-.07.94-.19,1.42-.24A1.43,1.43,0,0,0,60,326.71Z" style="fill:#BA68C8"></path><path d="M60,326.71c.76,1.31,3.15,1.65,5.88,1.31-.08,0-.29.28-.36.34a4.59,4.59,0,0,1-.44.33,5.73,5.73,0,0,1-1,.54,8.59,8.59,0,0,0-.92.44,2.26,2.26,0,0,1-1,.35c-.3,0-.59-.09-.89-.08a5.23,5.23,0,0,0-.77.15,2.33,2.33,0,0,1-1.55-.25,2.4,2.4,0,0,0-.66-.33c-.15,0-.3,0-.45,0a1.13,1.13,0,0,1-.76-.78,1,1,0,0,0-.1-.24c-.11-.13-.31-.17-.41-.32s0-.48.18-.65.43-.28.54-.5.08-.22.14-.33a.91.91,0,0,1,.49-.43,2.7,2.7,0,0,1,.64-.14c.48-.07.94-.19,1.42-.24A1.43,1.43,0,0,0,60,326.71Z" style="fill:#fff;opacity:0.5"></path></g></g></g><g id="freepik--Shovel--inject-15"><g id="freepik--shovel--inject-15"><g id="freepik--shovel--inject-15"><g id="freepik--shovel--inject-15"><path d="M435.56,327.24s-3.25,13.28-6.59,20.06a21.29,21.29,0,0,1-1.16,2.07c-.62,0-1.27,0-2-.05-4.95-.22-11.65-1.19-16.36-4.49-1.14-5.19-1.57-9,.14-13.43l7.83-20.21,1.76-.29Z" style="fill:#e0e0e0"></path><polygon points="419.21 310.9 417.45 311.19 433.8 327.53 435.56 327.24 419.21 310.9" style="fill:#ebebeb"></polygon><path d="M433.8,327.53s-3.82,14.2-7.1,20.33c-.29.53-.57,1-.86,1.46-4.95-.22-11.65-1.19-16.36-4.49-.26-.19-.5-.36-.73-.55-1-5.48-.87-8.37.87-12.88l7.83-20.21Z" style="fill:#fafafa"></path><path d="M423.42,318.46l3.54,3.7c-.75,4.12-5,14.6-6.41,16s-2.54.17-2.07-1.35S423.08,323.37,423.42,318.46Z" style="fill:#e0e0e0"></path><path d="M425.46,309.5a1.29,1.29,0,0,1,1-.81,4,4,0,0,1,3.48.93,1.26,1.26,0,0,1,.45,1.2l-3,11.37a1.25,1.25,0,0,1-1,.81,4,4,0,0,1-3.48-.93,1.24,1.24,0,0,1-.45-1.19Z" style="fill:#f0f0f0"></path><path d="M426.45,308.69a1.09,1.09,0,0,0-.53,2,4,4,0,0,0,3.47.93,1.24,1.24,0,0,0,1-.81,1.26,1.26,0,0,0-.45-1.2A4,4,0,0,0,426.45,308.69Z" style="opacity:0.2"></path><path d="M442.35,246a1.27,1.27,0,0,1,1-.81,4,4,0,0,1,3.48.93,1.29,1.29,0,0,1,.45,1.2l-17.51,65.8a1.25,1.25,0,0,1-1,.82,4,4,0,0,1-3.47-.94,1.27,1.27,0,0,1-.46-1.19Z" style="fill:#BA68C8"></path><path d="M443.34,245.22a1.1,1.1,0,0,0-.54,2,4,4,0,0,0,3.48.93,1.1,1.1,0,0,0,.54-2A4,4,0,0,0,443.34,245.22Z" style="opacity:0.2"></path><path d="M443.14,243.07a1.25,1.25,0,0,1,1-.81,4,4,0,0,1,3.49.93,1.27,1.27,0,0,1,.45,1.2L446,252.18a1.23,1.23,0,0,1-1,.81,4,4,0,0,1-3.48-.93,1.25,1.25,0,0,1-.45-1.2Z" style="fill:#37474f"></path><path d="M447.62,243.19a1.27,1.27,0,0,1,.45,1.2L446,252.18h0c-4,15.13-16.16,60.75-16.22,61h0c-.88,3.27-2.36,8.85-2.41,9a1.25,1.25,0,0,1-1,.81,3,3,0,0,1-1.13.06c7.5-28.19,16.86-63.38,21.41-80.5A3.37,3.37,0,0,1,447.62,243.19Z" style="opacity:0.2"></path><path d="M444.13,242.26a1.25,1.25,0,0,0-1,.81,1.29,1.29,0,0,0,.46,1.2,4,4,0,0,0,3.48.93,1.29,1.29,0,0,0,1-.81,1.27,1.27,0,0,0-.45-1.2A4,4,0,0,0,444.13,242.26Z" style="fill:#263238"></path><path d="M441.2,229.34a18.54,18.54,0,0,0,.38,10.45l1.42,4.39c.5,1.55,1.65,2.5,2.67,2.21l2.9-.83c2.31-.65,4.14-2.83,5-6l1.43-5.07a2.44,2.44,0,0,0,.1-.62h0a3.18,3.18,0,0,0-.56-1.93,29.15,29.15,0,0,0-4.95-5.35,20.34,20.34,0,0,0-5.52-3.32,1,1,0,0,0-1.23.45h0a1.69,1.69,0,0,0-.23.51Zm6.81,13.9-2.9.82c-.26.08-.57-.17-.7-.58L443,239.09a15.11,15.11,0,0,1-.3-8.53l.79-2.8c3.5,1.29,6.67,3.92,9.43,7.81l-.79,2.8C451.39,240.92,449.9,242.7,448,243.24Z" style="fill:#263238"></path></g></g><path d="M405.69,338.7a2.83,2.83,0,0,0-1.23,3.62,4,4,0,0,0-2.19-.4c-.74.14-1.42.88-1.19,1.6a2.33,2.33,0,0,0-1.73-.23,1.37,1.37,0,0,0-.79.81.27.27,0,0,1-.07.13.32.32,0,0,1-.24,0,2.32,2.32,0,0,0-2.05.77.69.69,0,0,0-.16.78.65.65,0,0,0,.24.19,4,4,0,0,0,3.33.29,1,1,0,0,1,.54-.09.86.86,0,0,1,.35.19,3.41,3.41,0,0,0,4.31-.32A.34.34,0,0,1,405,346a.27.27,0,0,1,.17.06,6.27,6.27,0,0,0,3.19,1,4.37,4.37,0,0,0,1.61-.23,15.62,15.62,0,0,0,1.35-.8,17.64,17.64,0,0,0,4.09,1.57,7,7,0,0,1-3.12-3.13c-.45-.91-.7-1.91-1.12-2.83C410.3,339.86,407.78,337.64,405.69,338.7Z" style="fill:#455a64"></path></g></g><g id="freepik--Compass--inject-15"><g id="freepik--compass--inject-15"><path d="M123.41,132.44l-13.53-7.82,0,0-.1,0h0c-6.68-3.78-15.86-3.2-26,2.65-20.4,11.79-36.94,40.43-36.94,64,0,11.71,4.08,19.95,10.7,23.84h0l.1.06.05,0,13.54,7.82,2.34-6.18a39.35,39.35,0,0,0,10.22-4.24c20.4-11.78,36.94-40.42,36.94-64a39.64,39.64,0,0,0-1.41-10.88Z" style="fill:#BA68C8"></path><path d="M123.41,132.44l-13.53-7.82,0,0-.1,0h0c-6.68-3.78-15.86-3.2-26,2.65-20.4,11.79-36.94,40.43-36.94,64,0,11.71,4.08,19.95,10.7,23.84h0l.1.06.05,0,13.54,7.82,2.34-6.18a39.35,39.35,0,0,0,10.22-4.24c20.4-11.78,36.94-40.42,36.94-64a39.64,39.64,0,0,0-1.41-10.88Z" style="fill:#fff;opacity:0.6000000000000001"></path><path d="M90.84,132A15.64,15.64,0,0,1,85.13,131a.62.62,0,0,1,.45-1.15,14.25,14.25,0,0,0,5.26,1,14.39,14.39,0,0,0,0-28.77.61.61,0,1,1,0-1.22,15.61,15.61,0,0,1,0,31.22Z" style="fill:#455a64"></path><ellipse cx="97.41" cy="177.75" rx="52.25" ry="30.16" transform="translate(-105.23 173.24) rotate(-60)" style="fill:#BA68C8"></ellipse><ellipse cx="97.41" cy="177.75" rx="52.25" ry="30.16" transform="translate(-105.23 173.24) rotate(-60)" style="fill:#fff;opacity:0.8"></ellipse><path d="M124.25,156.42c0,20-14.6,45.26-31.89,55.25-4.18,2.41-8.14,3.69-11.45,3.69a8.47,8.47,0,0,1-7.45-4c-2.5-3.76-2.88-9.27-2.88-12.29,0-20,14.6-45.26,31.88-55.25,4.19-2.41,8.15-3.69,11.45-3.69l.61,0C123.29,140.65,124.25,151.64,124.25,156.42Z" style="fill:#BA68C8"></path><path d="M124.25,156.42c0,20-14.6,45.26-31.89,55.25-4.18,2.41-8.14,3.69-11.45,3.69a8.47,8.47,0,0,1-7.45-4c-2.5-3.76-2.88-9.27-2.88-12.29,0-20,14.6-45.26,31.88-55.25,4.19-2.41,8.15-3.69,11.45-3.69l.61,0C123.29,140.65,124.25,151.64,124.25,156.42Z" style="fill:#fff;opacity:0.6000000000000001"></path><path d="M117.41,152.47c0,20-14.6,45.26-31.89,55.24-4.18,2.42-8.14,3.69-11.45,3.69-.2,0-.41,0-.61,0-2.5-3.76-2.88-9.27-2.88-12.29,0-20,14.6-45.26,31.88-55.25,4.19-2.41,8.15-3.69,11.45-3.69l.61,0C117,143.94,117.41,149.45,117.41,152.47Z" style="fill:#fff"></path><path d="M95.4,171.46l-1.31-16.71c-.1-1.31-1.45-.63-1.71.87l-3.3,19Z" style="fill:#BA68C8"></path><path d="M92.63,171.32,86,167.75c-.52-.29-1.25,1.05-.92,1.69l4.2,8.13Z" style="fill:#BA68C8"></path><path d="M92.63,171.32,86,167.75c-.52-.29-1.25,1.05-.92,1.69l4.2,8.13Z" style="fill:#fff;opacity:0.4"></path><path d="M91.54,180.24l6.67,3.57c.53.28,1.25-1.05.92-1.69L94.93,174Z" style="fill:#BA68C8"></path><path d="M91.54,180.24l6.67,3.57c.53.28,1.25-1.05.92-1.69L94.93,174Z" style="fill:#fff;opacity:0.4"></path><path d="M90.52,172l-12.17,9.49c-1,.75-1.07,2.76-.14,2.56L90,181.42Z" style="fill:#BA68C8"></path><path d="M88.77,180.1l1.31,16.7c.1,1.32,1.45.63,1.71-.86l3.31-19Z" style="fill:#BA68C8"></path><path d="M93.65,179.57l12.17-9.49c1-.75,1.07-2.76.14-2.55l-11.79,2.61Z" style="fill:#BA68C8"></path><path d="M95.1,174.94,101,160.67c.47-1.12-.2-1.84-.85-.92l-8.22,11.79Z" style="fill:#455a64"></path><path d="M89.07,176.61l-5.92,14.27c-.46,1.12.21,1.84.86.92L92.23,180Z" style="fill:#455a64"></path><path d="M87.54,178.07c.21-3.74,2.41-7.8,4.92-9.07s4.38.74,4.17,4.48-2.41,7.81-4.92,9.08S87.33,181.82,87.54,178.07Z" style="fill:#37474f"></path><path d="M89.52,177.07c.12-2.11,1.36-4.4,2.78-5.12s2.47.42,2.35,2.53-1.36,4.41-2.78,5.12S89.4,179.19,89.52,177.07Z" style="fill:#BA68C8"></path><path d="M89.52,177.07c.12-2.11,1.36-4.4,2.78-5.12s2.47.42,2.35,2.53-1.36,4.41-2.78,5.12S89.4,179.19,89.52,177.07Z" style="fill:#fff;opacity:0.8"></path><path d="M98.31,124.72h-4a12.88,12.88,0,0,0-7.48,0h-4v5.33h0c-.13,1.23.62,2.49,2.25,3.43a12.08,12.08,0,0,0,11,0c1.63-.94,2.37-2.2,2.24-3.43h0Z" style="fill:#BA68C8"></path><path d="M98.31,124.72h-4a12.88,12.88,0,0,0-7.48,0h-4v5.33h0c-.13,1.23.62,2.49,2.25,3.43a12.08,12.08,0,0,0,11,0c1.63-.94,2.37-2.2,2.24-3.43h0Z" style="fill:#fff;opacity:0.30000000000000004"></path><path d="M85.1,121.56c-3,1.75-3,4.58,0,6.32a12.05,12.05,0,0,0,10.94,0c3-1.74,3-4.57,0-6.32A12.12,12.12,0,0,0,85.1,121.56Z" style="fill:#c1e4ff"></path><path d="M101.67,119.21h-5.6a18,18,0,0,0-10.47,0H80v3.35h0c-.18,1.72.86,3.48,3.14,4.8a17,17,0,0,0,15.33,0c2.28-1.32,3.32-3.08,3.14-4.8h0Z" style="fill:#BA68C8"></path><path d="M101.67,119.21h-5.6a18,18,0,0,0-10.47,0H80v3.35h0c-.18,1.72.86,3.48,3.14,4.8a17,17,0,0,0,15.33,0c2.28-1.32,3.32-3.08,3.14-4.8h0Z" style="fill:#fff;opacity:0.6000000000000001"></path><path d="M83.17,114.78c-4.23,2.44-4.23,6.41,0,8.85a17,17,0,0,0,15.33,0c4.23-2.44,4.23-6.41,0-8.85A17,17,0,0,0,83.17,114.78Z" style="fill:#BA68C8"></path><path d="M83.17,114.78c-4.23,2.44-4.23,6.41,0,8.85a17,17,0,0,0,15.33,0c4.23-2.44,4.23-6.41,0-8.85A17,17,0,0,0,83.17,114.78Z" style="fill:#fff;opacity:0.8"></path><path d="M85.36,131a.62.62,0,0,1-.23,0,15.61,15.61,0,0,1,5.71-30.15.61.61,0,0,1,0,1.22,14.39,14.39,0,0,0-5.26,27.78.62.62,0,0,1-.22,1.19Z" style="fill:#455a64"></path></g></g><g id="freepik--character-2--inject-15"><g id="freepik--Character--inject-15"><g id="freepik--Bottom--inject-15"><path d="M334,209.15c.25-8.18.72-32.24,1.43-41.61l45.87,4.08,3.54,55.48a47.66,47.66,0,0,1,2.4,11.64c.79,9.6,1.72,20.34,1.72,20.34s-.07,2.81-6.09,4.24c-8.53,2-9.18-.09-9.18-.09s-4.07-11.15-5.1-14.1c-1.34-3.88-3.62-10.56-5.83-17.13s-5.06-27.26-5.06-27.26l-2.89,19c.74,4.6.33,11.11-1,17.58-2.24,10.69-2.23,11-3,14.32a25.42,25.42,0,0,1-8.29.74c-5.11-.26-7-2.2-7-2.2s-1.13-24-1.38-32.59S334,209.15,334,209.15Z" style="fill:#455a64"></path><path d="M357.66,204.74c-1.45-6.33-3.38-16.54-3.38-16.54s-6.72-.14-10-4.67c1.82,4.79,8.1,6.86,8.1,6.86l3.27,15.46-.85,17.89Z" style="fill:#37474f"></path><path d="M319,282.45a3,3,0,0,0,.64,3.07,14,14,0,0,0,10,2.05c4.93-.68,6.29-1.65,8.25-3.26s3.74-3.32,6-3.82,5.22-1.31,5.87-1.94.52-3.37.52-3.37Z" style="fill:#263238"></path><path d="M334.49,267.1c-.15,1.55-1.6,2.65-2.4,3.4a26.62,26.62,0,0,1-4,3.15c-1.27.79-3.93,2.31-5,2.87-5.42,2.94-5.14,5-3.89,7.06,1,1.69,5.31,2.83,9.12,2.8a15.47,15.47,0,0,0,9.08-3.33,20.52,20.52,0,0,1,6-3.76c2.15-.82,6.42-1.75,6.67-3.16a17.92,17.92,0,0,0-.44-6.13,9.86,9.86,0,0,1-.19-4.23c.21-2,2.45-11.89,2.71-13.36s-.42-1.47-.42-1.47-.1,2.81-6.69,2.86-9.45-1.35-9.74-2.45c-.78,0-.61.6-.57,3.19A125.58,125.58,0,0,1,334.49,267.1Z" style="fill:#BA68C8"></path><path d="M379.51,294c.36,3.28,1,5.45,2.44,7.36a6.08,6.08,0,0,0,6.33,2.31c2.51-.58,5.81-2.51,6.42-5.34a15.85,15.85,0,0,0-.32-7.8Z" style="fill:#263238"></path><path d="M378.48,279.72a82.31,82.31,0,0,1,.47,10.54c0,4.42.56,6.89,3.21,10,3.24,3.81,9.4,1.14,11-1.55s2-4.17,1.11-8.59c-.74-3.86-1.75-5.28-2.59-10-.79-4.4-1.58-14.42-1.84-16.68-.37-3.25-.46-4.31-1-4.35-.09,1-2.6,2.71-7,4-3.67,1-7.75,1-8.24.19-.3.32-.18.88.75,3.58C375.14,268.93,378.14,276.41,378.48,279.72Z" style="fill:#BA68C8"></path></g><g id="freepik--Top--inject-15"><path d="M344.46,121.68c-4.4.71-7.75,2.9-10,8s-6.59,15.83-6.59,15.83l-16.41,5.19,3.2,8.68s10.36-1.64,16.6-2.86c4.51-.88,5.2-1.64,7-5.35s5.8-13.46,5.8-13.46Z" style="fill:#ffa8a7"></path><path d="M371.86,106.4c-.62,1.59,0,5.31,2.24,6.25a3.92,3.92,0,0,0,3.06,4.8c0,2.29.94,3.57,3.25,4,.43,2.15,2.29,3.23,4.62,2.42.47,1.56,1.81,1.73,3,1.69a1.5,1.5,0,0,1,1.74,1.31,3.66,3.66,0,0,0-1.38-3.82,3.06,3.06,0,0,0-2.79-.42,3.23,3.23,0,0,0-3.2-2.91c-.23-1.69-.66-2.88-2.18-3.75a4,4,0,0,0-1.49-4.48,4.25,4.25,0,0,0,.88-1.63,6.29,6.29,0,0,0-3.64-3C372.69,105.85,371.86,106.4,371.86,106.4Z" style="fill:#263238"></path><path d="M381.11,157.87c.09-4.57,2.82-20.29,2.93-22.25.22-3.94-.8-10-5.79-12.23L367.37,120s-7.49-.35-9.7-.43c-2-.07-13.21,2.08-13.21,2.08-2.65,2.25-4.41,5-6.3,17.58-.48,3.22-3.21,22.54-3.18,33.23,6.36,10,34.1,11.38,47.07,2.63C382.05,175.12,381,164.58,381.11,157.87Z" style="fill:#BA68C8"></path><path d="M379.1,105.15a3.71,3.71,0,0,0,.43-.84,4.2,4.2,0,0,0,6.06-.8c-3.08,1-2.72-2.57-.88-3.84,4.51-4.3,1.82-8.33-1.43-12.25-5.42-13.09-27-10.65-30.88-.36-9.6,3.65-4.83,20.33,3.4,26.8C360.33,117.42,374.87,111.25,379.1,105.15Z" style="fill:#263238"></path><path d="M381.22,101.11c0,1.83.31,2.56.28,5.51a11.37,11.37,0,0,1-2.41,7.31c-1.8,2.17-5,3.31-8.15,3.37h-.75l-.26,4.26c-5.21,6.86-17.92,2.85-15-.74l.79-13.45s-.9,1.5-3.48.62c-1.7-.57-3.09-3.39-2.13-5.69a2.78,2.78,0,0,1,3.21-1.76c2,.38,1.9,3,3.28,2.74s1.73-2.92,1.85-4.14c.43-4.7,1.88-7.88,4.24-9.22a8,8,0,0,1,9.42,1.38c2.7-4,8.16-2.79,9,2.87C381.62,97.25,381.16,99,381.22,101.11Z" style="fill:#ffa8a7"></path><path d="M368.52,100.83a1.5,1.5,0,1,1-1.58-1.48A1.54,1.54,0,0,1,368.52,100.83Z" style="fill:#263238"></path><path d="M365.17,97.36,368,96.2a1.53,1.53,0,0,0-2.83,1.16Z" style="fill:#263238"></path><path d="M376.41,96.13l2.88,1.14a1.55,1.55,0,0,0-2.88-1.14Z" style="fill:#263238"></path><path d="M366.9,107.71l4.69,1.48a2.41,2.41,0,0,1-3,1.7A2.58,2.58,0,0,1,366.9,107.71Z" style="fill:#b16668"></path><path d="M366.91,109.19a1.87,1.87,0,0,1,.82-.24,2,2,0,0,1,2,1.91s0,0,0,.07a2.27,2.27,0,0,1-1.21,0A2.52,2.52,0,0,1,366.91,109.19Z" style="fill:#f28f8f"></path><path d="M378.91,100.85a1.5,1.5,0,1,1-1.58-1.49A1.55,1.55,0,0,1,378.91,100.85Z" style="fill:#263238"></path><polygon points="371.67 97.84 372.26 106.39 376.33 105.5 371.67 97.84" style="fill:#f28f8f"></polygon><path d="M370.19,117.29a22,22,0,0,1-9.06-2.68,10.09,10.09,0,0,1-3.35-3.41,8.6,8.6,0,0,0,1.91,3.88c3.25,3.46,10.4,3.88,10.4,3.88Z" style="fill:#f28f8f"></path><path d="M350.32,107.23c-1.34,1.06-2.62,4.46-1.2,6.38a4,4,0,0,0-.42,5.62c-1.18,2-1,3.56.77,5.09-.73,2.07.34,4,2.75,4.43-.38,1.59.68,2.41,1.76,3a1.51,1.51,0,0,1,.84,2,3.67,3.67,0,0,0,.75-4,3.09,3.09,0,0,0-2.19-1.78,3.23,3.23,0,0,0-1.28-4.13c.66-1.57.89-2.81,0-4.34a4,4,0,0,0,1-4.61,3.07,3.07,0,0,0,2.37-2.51,32,32,0,0,0-2.41-2.86C350.73,107,350.32,107.23,350.32,107.23Z" style="fill:#263238"></path><path d="M299,123.27l17.67,49.17,6.2,5.72L334.5,178l10.71,9.26,12.55-2.38-4.66-47.53L335.32,141l-11-10.24-7,1.54.36,2.74.1.74.58,4.42L317,135.87l-.22-.73-.8-2.6-1.71.37.29,2.65.08.75.26,2.45-.82-2.35-.26-.72-.87-2.49-3.35.73Z" style="fill:#BA68C8"></path><path d="M299,123.27l17.67,49.17,6.2,5.72L334.5,178l10.71,9.26,12.55-2.38-4.66-47.53L335.32,141l-11-10.24-7,1.54.36,2.74.1.74.58,4.42L317,135.87l-.22-.73-.8-2.6-1.71.37.29,2.65.08.75.26,2.45-.82-2.35-.26-.72-.87-2.49-3.35.73Z" style="fill:#fff;opacity:0.35000000000000003"></path><path d="M314.54,135.56l.08.75,2.36-.44-.22-.73Zm-12.24-5.62,15,42a.31.31,0,0,0,.1.15l4.62,4.26a.39.39,0,0,0,.26.1l11.62-.33,10.54,8.8a.36.36,0,0,0,.23.08h.07l10.49-1.87a.36.36,0,0,0,.31-.4l-4.47-42.24a.39.39,0,0,0-.15-.26.36.36,0,0,0-.3-.06L336,143.27l-10.78-9.55a.36.36,0,0,0-.31-.1L317.61,135l.1.74,7.16-1.33L335.66,144a.34.34,0,0,0,.32.08l14.37-3,4.39,41.47-10,1.77-10.52-8.77a.41.41,0,0,0-.25-.08l-11.6.33-4.44-4.1L303.5,131.07l6.66,5.92a.36.36,0,0,0,.31.09l3.59-.67-.26-.72-3.28.62-7.62-6.78a.38.38,0,0,0-.46,0A.37.37,0,0,0,302.3,129.94Z" style="fill:#BA68C8"></path><polygon points="324.28 130.71 334.5 178 345.21 187.26 335.32 140.95 324.28 130.71" style="fill:#fff;opacity:0.25"></polygon><polygon points="309.57 133.94 299.01 123.27 316.68 172.44 322.88 178.16 309.57 133.94" style="fill:#fff;opacity:0.25"></polygon><path d="M342.1,166.27a.67.67,0,0,0,.14-.09.73.73,0,0,0,.11-.29,1.3,1.3,0,0,1,.84-.88,3.14,3.14,0,0,1,1.26-.14,25.13,25.13,0,0,1,4.44.89,8.7,8.7,0,0,0,5.59-.1c.44-.19,1.33-.58,1.27-1.19l1.08,11a18.17,18.17,0,0,1-2.82.12c-2.94-.08-6.05-.29-8.73-1.64a3,3,0,0,1-.92-.64c-.21-.23-.35-.51-.55-.75-.39-.48-1-.8-1.22-1.37a2.72,2.72,0,0,1,0-1.42.82.82,0,0,0,0-.41,1,1,0,0,0-.35-.4,2.2,2.2,0,0,1-.83-1.32,1.24,1.24,0,0,1,.67-1.31Z" style="fill:#ffa8a7"></path><path d="M310.31,154.71c1.28,1.09,2.78,1.13,4.32,1.58a2.86,2.86,0,0,1,1.1.52,1.19,1.19,0,0,1,.46,1.07c-.1.68-.92,1.07-1,1.75-.06.46.24.93.13,1.38s-.64.73-.85,1.16a2.62,2.62,0,0,1-.15.39c-.53,1-2.17.49-2.87.08a6.76,6.76,0,0,1-2.12-2.17c-4-5.7.1-8.25.1-8.25Z" style="fill:#ffa8a7"></path><path d="M378.25,123.39c5.55,1.81,7.93,2.71,9.55,10.25a205.67,205.67,0,0,1,3.12,21.45c.76,8.17,2.31,10.78-4.71,13-7.68,2.49-15.58,3.71-19.81,5.12a37,37,0,0,1-9.57,2.18l-.86-8.77-.52-4.71c2.86.19,3.39,1.09,5.93,1,3.17-.1,15.76-6.18,15.76-6.18l-3.25-15.94S371.1,128.69,378.25,123.39Z" style="fill:#ffa8a7"></path></g></g></g><g id="freepik--character-1--inject-15"><g id="freepik--character--inject-15"><g id="freepik--bottom--inject-15"><path d="M222.4,269.27,221,254.48l16.37-1.33s-.81,11.38-.77,16.6c0,2.46,1.67,7.11,1.67,7.11s-6.89,3.58-10.43,2-5.83-7.32-5.73-8.37S222.4,269.27,222.4,269.27Z" style="fill:#ffa8a7"></path><path d="M257,292.9c.22,0,.37,2.15-.89,3.18a15.77,15.77,0,0,1-11.51,2.58c-5.47-.87-8.4-2.68-10.54-4.6s-5.15-4.64-7.61-5.27a17.54,17.54,0,0,1-6.09-3.31c-.71-.74-.52-4-.52-4Z" style="fill:#263238"></path><path d="M222.4,269.24a.88.88,0,0,0-.85.73c-.19.88-.45,3.45-.86,4.89a26.48,26.48,0,0,0-.76,7.78c.26,1.65,4.58,3.76,7,4.75a30.36,30.36,0,0,1,7.64,5.21c2.52,2.22,7.88,4.62,11.46,4.7,4.24.09,9-1.16,10.19-3.12,1.43-2.42,2.49-5.25-3.7-8.37-1.17-.59-5.27-3.21-6.67-4.16-3.78-2.57-6.42-4.9-8.07-9.29a2.37,2.37,0,0,0-.87-1.35,2,2,0,0,0-1.21-.15,40.22,40.22,0,0,0-6.21,1c-.85.38-2.06.82-2.07,1.91a3.62,3.62,0,0,0,.2,1.12c.07.22.12.52-.08.65s-.42,0-.58-.19a15.92,15.92,0,0,1-1.63-2.1,20.6,20.6,0,0,0-1.56-1.91,9,9,0,0,1-1.06-.73C222.3,270.23,222.41,269.76,222.4,269.24Z" style="fill:#455a64"></path><path d="M234.53,292.6a40.65,40.65,0,0,0-3.35-2.69h0s7.26,4.76,10.3,2.78c2-1.27,1.09-2.91,1.06-3.43s6.86-4,8.73-4.13h0a12.35,12.35,0,0,0,1.21.69c4.85,2.12,5.42,4.7,4.52,7.89-1.15,2-5.46,3.89-10.93,3.73C242.49,297.33,237.05,294.82,234.53,292.6Z" style="fill:#37474f"></path><path d="M242.07,287.73c3.85,1.7,2.17,2.39,1.07,2.51s-7.56-3.94-11.47-7.27c-4.09-3.47-7.22-8.06-8.73-9.33-.57-.48-1.18-1.06-1.72-1.6.13-.87.24-1.66.33-2.07a.88.88,0,0,1,.85-.73c0,.52-.1,1,.27,1.39a9,9,0,0,0,1.06.73,20.6,20.6,0,0,1,1.56,1.91,15.92,15.92,0,0,0,1.63,2.1C230.21,279.85,238.21,286,242.07,287.73Z" style="fill:#37474f"></path><path d="M242.88,289.65a.36.36,0,0,1-.24-.09.39.39,0,0,1,0-.55c1.14-1.34,6.45-4.43,9.32-4a.39.39,0,0,1-.11.77c-2.67-.37-7.72,2.7-8.63,3.76A.36.36,0,0,1,242.88,289.65Z" style="fill:#263238"></path><path d="M239.53,287.43a.38.38,0,0,1-.24-.09.39.39,0,0,1,0-.55c1.14-1.34,6.46-4.42,9.32-4a.39.39,0,0,1,.33.44.38.38,0,0,1-.43.33c-2.68-.36-7.73,2.7-8.63,3.76A.37.37,0,0,1,239.53,287.43Z" style="fill:#263238"></path><path d="M236.19,285.33a.46.46,0,0,1-.25-.1.39.39,0,0,1,0-.55c1.14-1.33,6.45-4.43,9.31-4a.39.39,0,0,1,.33.44.37.37,0,0,1-.43.33c-2.68-.36-7.73,2.7-8.63,3.76A.41.41,0,0,1,236.19,285.33Z" style="fill:#263238"></path><path d="M233.1,282.94a.38.38,0,0,1-.25-.09.41.41,0,0,1,0-.56c1.14-1.33,6.46-4.42,9.31-4a.39.39,0,0,1,.33.44.37.37,0,0,1-.43.34c-2.67-.37-7.73,2.7-8.63,3.76A.39.39,0,0,1,233.1,282.94Z" style="fill:#263238"></path><path d="M230.07,280.56a.46.46,0,0,1-.24-.1.39.39,0,0,1,0-.55c1.57-1.89,7.11-4.44,10-4a.39.39,0,0,1,.33.44.38.38,0,0,1-.43.34c-2.58-.36-7.89,2.09-9.28,3.77A.43.43,0,0,1,230.07,280.56Z" style="fill:#263238"></path><path d="M194,274.72,198.09,257l-17-2.92-.46,17.51s-1.35,4.69-.41,6.32,11.15,3.45,12.1,2.38S194,274.72,194,274.72Z" style="fill:#ffa8a7"></path><path d="M192,302.65c-.49,4-1.33,6.54-3,8.68s-4.68,2.47-7.63,1.37-6.65-3.46-7.3-7a20.12,20.12,0,0,1,.55-9.54Z" style="fill:#263238"></path><path d="M180.64,271.62c-1.23-.08-.93,3.05-1.57,8.41-.69,5.79-3.28,10.31-4.24,15-1.09,5.3-.92,7.76,1,11.32s9.07,7.77,13,3.59c3.18-3.42,3.55-7.64,3.59-13.08a127.6,127.6,0,0,1,.53-13.78c.48-4,2.16-7.72,1.12-8.32-.12.59-1.21,4.65-1.9,4.58a7.81,7.81,0,0,1,.08-1.53,1.82,1.82,0,0,0-.26-1.36,5.7,5.7,0,0,0-2-1.05c-1.19-.39-3.33-.87-4.56-1.14-.6-.14-1.22-.25-1.83-.33a5.51,5.51,0,0,0-1.57,0,1,1,0,0,0-.7.46,1.57,1.57,0,0,0-.1.61A3.71,3.71,0,0,1,181,276c-.05.15-.18.33-.36.27s-.18-.22-.18-.36C180.47,275.3,180.59,272,180.64,271.62Z" style="fill:#455a64"></path><path d="M175.2,293.49c-.17.76-1.19,5.83.3,7s2.76-2.7,2.76-2.7,4-.55,9.56,2.5c-.34.8.38,3.69,2,3.32s2.55-6.21,2.56-6.29c-.07,5.22-.5,9.29-3.59,12.61-3.9,4.18-11.08,0-13-3.59s-2.06-6-1-11.32C174.94,294.46,175.07,294,175.2,293.49Z" style="fill:#37474f"></path><path d="M178.69,298.17c-.14,1.95-2.22,1-2.15-1.77s1.56-9.5,2.14-14c.43-6.52.73-10.83,2-10.75,0,.06,0,.13,0,.19s-.17,3.72-.19,4.14c-.26,4-.39,11.74-1,15.33A58.17,58.17,0,0,0,178.69,298.17Z" style="fill:#37474f"></path><path d="M187.16,300.12a55.85,55.85,0,0,0,1.57-6.7c.64-3.56,2.79-10.67,3.86-14.5.34-.62,1.42-4.2,1.42-4.2.85.26,0,3.67-.46,5.26s-.92,3.31-1.44,5.6c-1.33,4.51-1.52,11.3-2.37,13.89S186.65,302,187.16,300.12Z" style="fill:#37474f"></path><path d="M187.93,300.44a.56.56,0,0,1-.16-.07,16.46,16.46,0,0,0-9.41-2.19.51.51,0,0,1-.54-.37.38.38,0,0,1,.35-.46,17.25,17.25,0,0,1,10.06,2.34.42.42,0,0,1,.16.59A.43.43,0,0,1,187.93,300.44Z" style="fill:#263238"></path><path d="M189.21,296.33l-.15-.05a20.44,20.44,0,0,0-10.54-2.45.52.52,0,0,1-.53-.39.38.38,0,0,1,.37-.45,21.16,21.16,0,0,1,11.13,2.59.4.4,0,0,1-.28.75Z" style="fill:#263238"></path><path d="M179.05,289.83a.5.5,0,0,1-.37-.33A.39.39,0,0,1,179,289c5.6-.94,10.9,2.36,11.12,2.5a.42.42,0,0,1,.16.59.48.48,0,0,1-.63.09c-.05,0-5.19-3.23-10.4-2.35A.45.45,0,0,1,179.05,289.83Z" style="fill:#263238"></path><path d="M179.59,286.07a.5.5,0,0,1-.37-.32.38.38,0,0,1,.31-.49,16,16,0,0,1,11.35,2.49.41.41,0,0,1,.12.59.49.49,0,0,1-.64.06,15.16,15.16,0,0,0-10.57-2.32A.44.44,0,0,1,179.59,286.07Z" style="fill:#263238"></path><path d="M180.21,281.85a.47.47,0,0,1-.36-.31.37.37,0,0,1,.29-.5c5.79-1.16,11.2,2.46,11.43,2.62a.41.41,0,0,1,.13.59.47.47,0,0,1-.63.07s-5.28-3.54-10.65-2.46A.5.5,0,0,1,180.21,281.85Z" style="fill:#263238"></path><path d="M186.46,137.88c-1.76,15.76-2.89,24.51-2.6,45.17.11,7.83.16,14.42-.61,24.72-.89,12-3.84,23.75-4.26,35.83a27.58,27.58,0,0,1-.55,5.74,19.45,19.45,0,0,0-1,4.58,9.32,9.32,0,0,0,2.13,5.21,3,3,0,0,1,.82,2.11,15.62,15.62,0,0,0-.17,2.71s10.17,4.6,16.55,2.35c.31-1.13.41-3,1.05-3.94.45-.67,1.52-1.05,2.09-1.71a6.09,6.09,0,0,0,1.27-2.41,24.23,24.23,0,0,0,.36-3.82c.28-3,1.66-5.79,2.63-8.65,2.63-7.71,2.21-15.93,3.85-23.83,2.22-10.67,3.28-17.42,4.54-25s4.51,15,4.51,15a28.85,28.85,0,0,1,.3,4.45c-.12,2.7-.48,5.54-.54,8.23-.14,5.92-.28,11.29.78,17.16a31.87,31.87,0,0,1,.87,8.36c-.11,1.84-.44,3.47.27,5.18.5,1.23,1.24,1.54,1.87,2.68.26.47.25,4.17.54,4.35,0,0,9.44,5.95,16.11.45.1-1.08,0-3.21.46-4.16a9.63,9.63,0,0,0,3.07-6.43c.05-1.74-.28-3.48-.4-5.22a56.19,56.19,0,0,1,.76-10c.64-5.55.59-11.11.87-16.67.49-10,.61-20,.49-29.95-.2-17.3-.37-33.6-1.13-51.88Z" style="fill:#455a64"></path><path d="M195.31,158.7c-.24,18-7.3,22.68-10.61,24C184.7,182.68,192.05,174.78,195.31,158.7Z" style="fill:#37474f"></path><path d="M217.63,162.38,212,200.08c.18-1,.35-2.09.52-3.15,1.26-7.6,4.51,15,4.51,15l-1-14.67a62.17,62.17,0,0,1,1-13.89L220.5,165a17,17,0,0,0,10.3-8C226.8,160.91,217.63,162.38,217.63,162.38Z" style="fill:#263238"></path><path d="M180,264.55c2.84,2.34,11.13,4.39,16.85,2.34L198,262c-4.31,1.44-13.15.4-17.88-2.68Z" style="fill:#263238"></path><path d="M221.11,262.89c1.91,2,10.82,3.79,16.13.67l.45-4.95c-4,2.24-13.21,1.75-17.11-.64Z" style="fill:#263238"></path><path d="M183.9,186.63s-1.34,23-1.29,24.61,13.39,4.46,13.71,3.43c.52-1.7.43-5.51,1.64-23.84C188.26,189.43,183.9,186.63,183.9,186.63Z" style="fill:#37474f"></path><path d="M196.07,197.12A4.15,4.15,0,0,0,195,197c-.43,0-.86,0-1.28-.08a19,19,0,0,1-2.7-.45,21.48,21.48,0,0,1-2.94-1c-.79-.32-1.52-.74-2.31-1.05-.07,0-.08.11,0,.15a11.23,11.23,0,0,0,2.46,1.32,18,18,0,0,0,2.44.84,20.28,20.28,0,0,0,2.69.52c.45,0,.9.09,1.36.12a2.87,2.87,0,0,0,1.43-.09C196.13,197.29,196.14,197.15,196.07,197.12Z" style="fill:#263238"></path><path d="M191,194c-.11-.23-.19-.37-.44-.4a.78.78,0,0,0-.59.15.69.69,0,0,0-.3.5.82.82,0,0,0,.41.83.79.79,0,0,0,.84,0,.63.63,0,0,0,.21-.51A1.28,1.28,0,0,0,191,194Zm-.23.68a.46.46,0,0,1-.59.1c-.29-.18-.23-.77.14-.81a.47.47,0,0,1,.33.09A.51.51,0,0,1,190.77,194.65Z" style="fill:#263238"></path></g><g id="freepik--top--inject-15"><path d="M260.89,113.67s17,13.77,18.67,15.25,5.54,3.41,8.83,5,6,2.78,6.89,3.85,1.6,2.46,2.9,5.84c.69,1.81,1.67,4.27,2.33,6.52a45.62,45.62,0,0,1,1.1,5.26c.18,1.1-1.82,1.5-3-1.48-.91-2.37-2.46-5.32-2.46-5.32s-.26,2.43-2.24,2.29-1,1-2.45.82-2,1.48-3.43.79-1.64.81-3.06.07-1.71-2.12-1.89-3.81.17-2.58-1.41-3.25-3.88-.48-5.56-3.2-3-2.55-10.44-6.79c-7.89-4.52-11.46-6.61-15.38-9" style="fill:#ffa8a7"></path><path d="M233.41,80.81c5.17,1.15,8.57,4.81,12.64,10.56,3.48,4.9,15.09,22,15.09,22l5.92,4.93s-3.56.29-6.93,5-1.46,8.59-1.46,8.59a94.41,94.41,0,0,1-10-6c-3.06-2.37-5.92-5.43-10.62-12.69s-6.12-8.94-6.12-8.94Z" style="fill:#455a64"></path><path d="M264.33,114.72c1,1.22,1.77,1.29,2.61,2.36.54.7.09,1.18,1.86,2.22s1.33,1.89,1.33,1.89l-1.16-1s-2.29-.48-6.74,4.26-3.27,7.17-3.27,7.17l1.56.9a2,2,0,0,1-2.62-.18c-.56-.72-1.28-.38-2.29-.86s-1.15-1.36-2.25-1.62a2.85,2.85,0,0,1-2.47-2.32c-.29-1.54,1.3-5.57,4.64-9.12C259.13,114.63,262.84,112.9,264.33,114.72Z" style="fill:#BA68C8"></path><path d="M280.24,138.3a14,14,0,0,0,3.08.4,7.92,7.92,0,0,1,3.17.62c2,1,3.2,2.94,4.72,4.19a3.31,3.31,0,0,0,2.5.9.79.79,0,0,0,.46-.21c.08-.12.11-.15.07-.39a5.9,5.9,0,0,0-.52-1.36l-1.43-2.78a12.67,12.67,0,0,1-.59-1.48,3.59,3.59,0,0,1-.17-.79c0-.25,0-.6.26-.71-.23.16-.18.46-.13.69a4.41,4.41,0,0,0,.26.72,11.14,11.14,0,0,0,.76,1.35c.54.89,1.11,1.76,1.66,2.67a5.78,5.78,0,0,1,.68,1.53,1.22,1.22,0,0,1-.23,1.08,1.61,1.61,0,0,1-.9.52,4.09,4.09,0,0,1-3.25-1c-1.67-1.44-2.76-3.27-4.47-4.28a7.6,7.6,0,0,0-2.89-.79A11.72,11.72,0,0,1,280.24,138.3Z" style="fill:#f28f8f"></path><path d="M291.57,146.44l.31.12,1.21.5a.84.84,0,0,0-.34-.45,4.16,4.16,0,0,0-2.36-1.3,1.24,1.24,0,0,0-1.16.71,1.88,1.88,0,0,0-.22,1,2,2,0,0,0-1-.17,2.47,2.47,0,0,0-1.33.68,2.37,2.37,0,0,0-.46.63l-.09.23c-.09,0-.25,0-.33,0a1.6,1.6,0,0,0-1.27.59,2.32,2.32,0,0,0-.35.55c0,.06,0,.59.09.53a1.54,1.54,0,0,0,.35-.37,1.49,1.49,0,0,1,1.82-.26.28.28,0,0,0,.12,0c.09,0,.14-.11.16-.2a1.85,1.85,0,0,1,1.2-1.41,1.75,1.75,0,0,1,1,.08c.14.05.39.15.53.05s.11-.34.12-.51a1.54,1.54,0,0,1,.16-.67,1.12,1.12,0,0,1,1.05-.53A2.64,2.64,0,0,1,291.57,146.44Z" style="fill:#f28f8f"></path><path d="M237.38,95.61c-.8-7-5.23-13.23-13.35-16.06l-5.42-1.93-8.33-.2c-3.56.81-23.58,7-23.58,7l3.63,36.3s-2,15.27-2.56,24.71c10.12,6.61,39,7,50,.85C238.47,136.6,238.18,102.57,237.38,95.61Z" style="fill:#37474f"></path><g id="freepik--Head--inject-15"><path d="M218.61,33.65c-15-1-20.14,6-21.94,12.93s2.38,16.52,6.55,23.22l28.29-17.72C234.53,45,230.11,34.44,218.61,33.65Z" style="fill:#263238"></path><path d="M199.18,66.43a3.71,3.71,0,0,0,4.28-.64l-.87,14.32c3.18,4.21,9.42,6.84,15.14,6.18,3.07-.36,4.89-2.57,2-6.67l.41-4.22a22.72,22.72,0,0,0,4.43,0c3.1-.43,5.09-2.85,6.08-6.18,1.58-5.36,2.07-18.11.76-23.51C228,43,215.51,42,208.16,46.46c.48,4-.18,6.14-2,8.5.18,2.75-.62,4-1.42,4.08-1.48.2-1.69-1.41-2.62-2.42a4,4,0,0,0-6.14,1.58C194.33,61.5,197.07,65.57,199.18,66.43Z" style="fill:#ffa8a7"></path><path d="M220.11,75.4c-4.92-.57-11.47-3-13-5.31A16.72,16.72,0,0,1,205,66,12.26,12.26,0,0,0,206.23,71c1.16,2,6,5.54,13.72,6.2Z" style="fill:#f28f8f"></path><path d="M217.45,54.82A1.48,1.48,0,0,1,216,56.31a1.51,1.51,0,1,1,1.47-1.49Z" style="fill:#263238"></path><path d="M216.45,48.74l-3.27,2.1a2,2,0,0,1,.61-2.75A1.9,1.9,0,0,1,216.45,48.74Z" style="fill:#263238"></path><path d="M229.88,51.58l-3.58-.23a1.72,1.72,0,0,1,1.84-1.69A1.89,1.89,0,0,1,229.88,51.58Z" style="fill:#263238"></path><path d="M229.58,55.22a1.47,1.47,0,0,1-1.47,1.48,1.51,1.51,0,1,1,1.47-1.48Z" style="fill:#263238"></path><path d="M222.61,63,228,60.89c-.69-1-4.44-8.07-6.69-8.66C221.26,52.21,222.61,63,222.61,63Z" style="fill:#f28f8f"></path><path d="M217.1,63.71l4.75,1.94a2.51,2.51,0,0,1-3.3,1.5A2.69,2.69,0,0,1,217.1,63.71Z" style="fill:#b16668"></path><path d="M217,64.45a2.65,2.65,0,0,0,1.6,2.7,2.4,2.4,0,0,0,1.71,0A4,4,0,0,0,217,64.45Z" style="fill:#f28f8f"></path><path d="M199.26,55.82c1.32-4,7.25-10.8,15.82-13.11s15.47,0,17.17,2.21c-.9-4.52-4.44-15-21.73-11.71-18,3.48-15.15,22.21-14.22,24.39A3.92,3.92,0,0,1,199.26,55.82Z" style="fill:#BA68C8"></path><path d="M238.39,39.56c-1,1.51-6.14,5.37-6.14,5.37-3.52-3.64-16.54-3.16-27.91,3.64L204.2,47a22.64,22.64,0,0,1,9.34-9.19c4.18-2.18,12.68-3.13,16.51-3,6.69.17,8.27,1.61,8.35,2.6,0,.21.09,1.14.13,1.49,0,0,0,.06,0,.08A1,1,0,0,1,238.39,39.56Z" style="fill:#BA68C8"></path><path d="M238.39,39.56c-1,1.51-6.14,5.37-6.14,5.37-3.52-3.64-16.54-3.16-27.91,3.64L204.2,47a22.64,22.64,0,0,1,9.34-9.19c4.18-2.18,12.68-3.13,16.51-3,6.69.17,8.27,1.61,8.35,2.6,0,.21.09,1.14.13,1.49,0,0,0,.06,0,.08A1,1,0,0,1,238.39,39.56Z" style="opacity:0.15"></path><path d="M238.39,39.56c-1,1.51-6.14,5.37-6.14,5.37-3.52-3.64-16.54-3.16-27.91,3.64a22.65,22.65,0,0,1,9.34-9.18c4.18-2.18,12.68-3.14,16.5-3,6.46.17,8.17,1.51,8.35,2.49,0,0,0,.06,0,.08A1,1,0,0,1,238.39,39.56Z" style="opacity:0.30000000000000004"></path></g><path d="M232.4,156.1l-.1,3.94a28.49,28.49,0,0,0,9.83-4.43l.21-4.42Z" style="fill:#263238"></path><path d="M241.38,104.26c-.16-8.88-4.53-21-7.95-23.45,0,0-7.13-2.57-13.42-4.31l-.25,2.57c3.19,3,8,7.41,9.52,13.78,2.1,8.68,3.53,27,3.38,37.34s-.26,25.91-.26,25.91,8.21-2.33,9.94-4.91c1.6-3.86,0-4.75.1-7.25C242.86,132.23,241.49,110.76,241.38,104.26Z" style="fill:#BA68C8"></path><path d="M184.89,149.5a41.31,41.31,0,0,0-.24,5.09c.16,1,1.52,2.31,6.36,4,4.34,1.56,11.63,4.89,18.07,5.32l.38-4.48Z" style="fill:#263238"></path><path d="M207.4,93.45c-.94-4.37-4.8-13.55-4.8-13.55l.09-1.45s-1.66.4-7.23,2.2a76,76,0,0,0-9.33,3.7c-3.34,1.57-5,5.9-4.48,12.89s1.11,11.41,2.38,20c2,13.19,1.35,15.58.8,20.19-.33,2.76-2.3,10.47,0,12.4,5.62,6.29,24.6,9.67,24.6,9.67s.94-14.93,1-38.86A111,111,0,0,0,207.4,93.45Z" style="fill:#BA68C8"></path><path d="M200.3,127.35c0,1,.06,2.05,0,3.07,0,.51,0,1-.11,1.52s-.1,1-.21,1.5a17.82,17.82,0,0,1-1.94,5.7,10.61,10.61,0,0,1-4.14,4.26,9.53,9.53,0,0,1-6,1c.51.11,1,.24,1.55.31l.8,0a3.66,3.66,0,0,0,.81,0,7.7,7.7,0,0,0,1.58-.28l.79-.22.73-.33a10.37,10.37,0,0,0,4.54-4.42,15.66,15.66,0,0,0,1.84-6A21.62,21.62,0,0,0,200.3,127.35Z" style="opacity:0.2"></path><path d="M242.51,141.1a11.28,11.28,0,0,1-2.49-2.76,17.91,17.91,0,0,1-2.34-5.55,14.59,14.59,0,0,1-.32-1.49,12.63,12.63,0,0,1-.23-1.5c-.17-1-.17-2-.26-3.06a21.67,21.67,0,0,0,.24,6.17,15.8,15.8,0,0,0,2.27,5.83,11.11,11.11,0,0,0,3.12,3.18C242.5,141.65,242.5,141.37,242.51,141.1Z" style="opacity:0.2"></path><g id="freepik--Arm--inject-15"><path d="M186.17,171.66a45.32,45.32,0,0,1-1.9-4.53,15.38,15.38,0,0,0-3.4-5.44c-.56-.58-1.1-1.13-1.61-1.75a2.48,2.48,0,0,1-.4-1.76c0-.55.13-28.4.13-28.4s3.47-9.12,7-17.1c5.23-10,1.89-25.36,1.36-28.57-5.82,1.28-7.7,2.21-10,4.48s-3.15,5.65-5.08,10.93c-3.56,9.75-6.15,19-7.88,23.19-1.2,2.92-2.12,5.79-1.23,12,.93,6.5,3.64,23.73,3.73,24.86.28,3.71-.32,9,.38,11.16s1.65,4.76,2.39,6.42a4,4,0,0,0,2.36,2.11,28.61,28.61,0,0,0,2.88,4.49,2.9,2.9,0,0,0,2.82,1,39.35,39.35,0,0,0,2.14,3.67c1.17,1.82,1.7,1.23,2,.81a3.4,3.4,0,0,0,0-3.25c-.61-1.07-1.27-2.57-1.85-3.76-.43-.89-1.1-3-1.1-3s.62,1.13,1.15,2,1.2,2,2.33,3.8,2,2.63,2.63,2.2c.8-.56.89-2.16.22-3.32a50.13,50.13,0,0,1-3.1-6.34c-.36-1.32-.9-2.6-1.16-3.95a11.53,11.53,0,0,1-.51-2.74c.08-1.31,1.67.82,1.84,1.06.46.66.84,1.4,1.34,2a3.2,3.2,0,0,0,3.65,1.27.68.68,0,0,0,.42-.29.73.73,0,0,0-.16-.67A29.49,29.49,0,0,1,186.17,171.66Z" style="fill:#ffa8a7"></path><path d="M179,129.78c-.1,9.75-.36,19.67-.26,29.43.14.86,1.13,1.56,1.62,2.2,2.66,2.51,3.77,5.9,5.13,9.2a18.58,18.58,0,0,0,1.17,2.42l.64,1.19c.14.32.46.57,0,.74-1.73.66-3.25-.58-4.07-2.07a7.36,7.36,0,0,0-2.24-2.63c-1.1-.34-.74,1.38-.61,2,.38,1.6.92,3.56,1.47,5.14a37.47,37.47,0,0,0,2.89,6.07c.67,1,1.14,2.51.33,3.5-1.17,1.54-5.23-6.73-6-7.75l-.7-1.24a29.68,29.68,0,0,0,2.09,5.5c.34.66,1.16,2.34,1.48,3a2.94,2.94,0,0,1-.33,3c-1.09,1.1-3.34-3.87-3.89-4.69a2.93,2.93,0,0,1-2.84-1,3.38,3.38,0,0,0,1.27.91,2.54,2.54,0,0,0,1.52.11c.63,1,2.73,6,4.06,4.78a3.13,3.13,0,0,0,.44-3.26c-.32-.68-1.12-2.32-1.46-3a22.37,22.37,0,0,1-1.62-4.11l-.28.12c1.67,2.65,2.94,5.61,5.13,7.88a1,1,0,0,0,1.43,0c1-1.2.47-2.83-.25-4a34.84,34.84,0,0,1-3.91-9.84,7.06,7.06,0,0,1-.42-2.7s0,0,0,0c1.67,1.11,2.06,3.44,3.88,4.47.74.54,3.33.77,3.31-.52a14.15,14.15,0,0,0-.95-1.86c-2.15-3.86-3-8.57-6.43-11.66l-.9-1c-1.09-.94-.58-2.39-.69-3.68,0-8.85,0-17.88,0-26.72Z" style="fill:#f28f8f"></path><path d="M177.69,184.79a19.42,19.42,0,0,1-2.65-4.42,23,23,0,0,1-1.54-4.92c.57,1.62,1.15,3.23,1.86,4.78A38.39,38.39,0,0,0,177.69,184.79Z" style="fill:#f28f8f"></path><path d="M172,179.29a9.24,9.24,0,0,1-1.25-2.26,11.67,11.67,0,0,1-.68-2.48c.38.77.67,1.57,1,2.36Z" style="fill:#f28f8f"></path><path d="M178.93,179.24c-.86-1.73-1.94-4.34-1.94-4.34a17.46,17.46,0,0,0,2.38,5.76Z" style="fill:#f28f8f"></path></g><path d="M188.88,83.11c-4.43,1.24-11,1.77-14,8.33s-10.32,28.69-11.38,31.33a29.54,29.54,0,0,0-1.38,7s2.33,1.94,8.37,2.86,9.21-1,9.21-1a37.41,37.41,0,0,1,2.11-7c1.8-4.77,7.08-16.41,7.08-16.41S194,95.32,188.88,83.11Z" style="fill:#455a64"></path><path d="M161,133.74c.44-1.54.05-2.21.47-3.54.27-.85.19-.76,0-2.85s1.25-2.19,1.25-2.19l-.24,1.63s1.34,2.08,7.86,3.06,9.81-.5,9.81-.5c.18-.56.39-1.13.55-1.69.94.33.79,2,.37,2.64a4.69,4.69,0,0,0-.42.67c-.26.7.26,1.51,0,2.2-.11.29-.34.52-.47.79-.33.68,0,1.23.11,1.88a2.36,2.36,0,0,1-.81,1.7c-1.11,1.13-5.4,2.13-10.29,1.39C163.94,138.13,160.35,136,161,133.74Z" style="fill:#BA68C8"></path></g></g></g><g id="freepik--speech-bubble--inject-15"><g id="freepik--speech-bubble--inject-15"><g id="freepik--speech-bubble--inject-15"><path d="M436.61,40.53A26.65,26.65,0,0,0,393.11,71l-4,7.24a1.55,1.55,0,0,0,1.85,2.22l7.85-2.65a26.65,26.65,0,0,0,37.82-37.3Zm-5,35.67a24.19,24.19,0,0,1-16.88,5.55L412,81.43a24.18,24.18,0,0,1,4.35-48l2.77.18a24.18,24.18,0,0,1,12.51,42.6Z" style="fill:#455a64"></path><path d="M431.63,76.2a24.19,24.19,0,0,1-16.88,5.55L412,81.43a24.18,24.18,0,0,1,4.35-48l2.77.18a24.18,24.18,0,0,1,12.51,42.6Z" style="fill:#fff"></path></g><path d="M422.49,57.76l-.21-.17.21-.17a34.43,34.43,0,0,1,3.82-2.51L432,51.72l-10-10-3.17,5.69a33.45,33.45,0,0,1-2.5,3.82c-.05.08-.12.14-.17.22s-.11-.13-.16-.19v0a32.87,32.87,0,0,1-2.5-3.81l-3.21-5.69-10,10L406,55a34.35,34.35,0,0,1,3.82,2.5h0l.19.15-.19.15h0A32.23,32.23,0,0,1,406,60.28l-5.68,3.2,10,10,3.19-5.7A34.27,34.27,0,0,1,416,64h0l.16-.2c.05.08.12.14.17.22a33.53,33.53,0,0,1,2.51,3.82L422,73.45l10-10-5.68-3.17A33.11,33.11,0,0,1,422.49,57.76Z" style="fill:#BA68C8"></path></g></g></svg>
